<svg width="42" height="42" viewBox="0 0 42 42" fill="none" xmlns="http://www.w3.org/2000/svg">
<path d="M21 3.5C16.8228 3.5 12.8168 5.15937 9.86307 8.11307C6.90937 11.0668 5.25 15.0728 5.25 19.25C5.25229 21.8365 5.89226 24.3825 7.11323 26.6627C8.33421 28.9429 10.0985 30.8868 12.25 32.3225V38.5H15.75V33.25H19.25V38.5H22.75V33.25H26.25V38.5H29.75V32.305C34.0725 29.4175 36.75 24.5 36.75 19.25C36.75 15.0728 35.0906 11.0668 32.1369 8.11307C29.1832 5.15937 25.1772 3.5 21 3.5ZM14 19.25C14.9283 19.25 15.8185 19.6188 16.4749 20.2751C17.1313 20.9315 17.5 21.8217 17.5 22.75C17.5 23.6783 17.1313 24.5685 16.4749 25.2249C15.8185 25.8813 14.9283 26.25 14 26.25C13.0717 26.25 12.1815 25.8813 11.5251 25.2249C10.8687 24.5685 10.5 23.6783 10.5 22.75C10.5 21.8217 10.8687 20.9315 11.5251 20.2751C12.1815 19.6188 13.0717 19.25 14 19.25ZM28 19.25C28.9283 19.25 29.8185 19.6188 30.4749 20.2751C31.1313 20.9315 31.5 21.8217 31.5 22.75C31.5 23.6783 31.1313 24.5685 30.4749 25.2249C29.8185 25.8813 28.9283 26.25 28 26.25C27.0717 26.25 26.1815 25.8813 25.5251 25.2249C24.8687 24.5685 24.5 23.6783 24.5 22.75C24.5 21.8217 24.8687 20.9315 25.5251 20.2751C26.1815 19.6188 27.0717 19.25 28 19.25ZM21 24.5L23.625 29.75H18.375L21 24.5Z" fill="#8C86FE"/>
</svg>
