<svg width="876" height="350" viewBox="0 0 876 350" fill="none" xmlns="http://www.w3.org/2000/svg">
<path d="M424 249.4C413.933 249.4 404.6 246.7 396 241.3C387.4 235.833 380.467 227.533 375.2 216.4C370 205.267 367.4 191.6 367.4 175.4C367.4 160.667 370 148.033 375.2 137.5C380.4 126.9 387.433 118.867 396.3 113.4C405.233 107.933 415.2 105.2 426.2 105.2C432.933 105.2 438.633 105.867 443.3 107.2C447.967 108.467 451.633 109.967 454.3 111.7C456.967 113.367 459.533 115.333 462 117.6L450.8 138.6C448.467 136.067 446.4 134.133 444.6 132.8C442.8 131.4 440.5 130.3 437.7 129.5C434.967 128.633 431.467 128.2 427.2 128.2C420.533 128.2 414.8 130.167 410 134.1C405.2 137.967 401.533 143.367 399 150.3C396.467 157.167 395.2 165.067 395.2 174C395.2 185.2 396.5 194.767 399.1 202.7C401.767 210.633 405.333 216.6 409.8 220.6C414.333 224.6 419.4 226.6 425 226.6C430.933 226.6 436.167 225.767 440.7 224.1C445.3 222.433 448.8 220.333 451.2 217.8L462.2 237.6C458.133 240.933 453.2 243.733 447.4 246C441.667 248.267 433.867 249.4 424 249.4ZM529.516 249.4C517.116 249.4 506.549 246.467 497.816 240.6C489.082 234.667 482.482 226.3 478.016 215.5C473.549 204.633 471.316 191.867 471.316 177.2C471.316 162.667 473.516 150 477.916 139.2C482.382 128.333 488.916 119.967 497.516 114.1C506.182 108.167 516.649 105.2 528.916 105.2C541.649 105.2 552.382 108.2 561.116 114.2C569.849 120.133 576.382 128.5 580.716 139.3C585.116 150.1 587.316 162.733 587.316 177.2C587.316 191.867 585.049 204.633 580.516 215.5C576.049 226.3 569.482 234.667 560.816 240.6C552.149 246.467 541.716 249.4 529.516 249.4ZM529.516 228C535.449 228 540.749 226.1 545.416 222.3C550.149 218.5 553.882 212.733 556.616 205C559.349 197.267 560.716 187.8 560.716 176.6C560.716 160.133 557.916 147.6 552.316 139C546.782 130.333 538.982 126 528.916 126C519.116 126 511.516 130.333 506.116 139C500.782 147.6 498.116 160.2 498.116 176.8C498.116 188.133 499.382 197.633 501.916 205.3C504.516 212.9 508.149 218.6 512.816 222.4C517.549 226.133 523.116 228 529.516 228ZM610.709 178.2H674.509V197.8H610.709V178.2Z" fill="#8C86FE"/>
<path d="M705.925 116.6L732.925 104V247H705.925V116.6ZM806.22 250C797.354 250 790.287 249.133 785.02 247.4C779.82 245.667 775.487 243.133 772.02 239.8L781.82 219.8C784.287 222.467 787.654 224.4 791.92 225.6C796.187 226.8 800.487 227.4 804.82 227.4C811.62 227.4 817.654 225.667 822.92 222.2C828.254 218.667 832.454 213.8 835.52 207.6C838.587 201.333 840.287 194.2 840.62 186.2C840.754 184.333 840.82 181.867 840.82 178.8C837.42 185.4 832.42 190.367 825.82 193.7C819.22 196.967 812.02 198.6 804.22 198.6C795.487 198.6 787.954 196.6 781.62 192.6C775.354 188.533 770.587 183.1 767.32 176.3C764.054 169.5 762.42 162 762.42 153.8C762.42 143.733 764.62 134.967 769.02 127.5C773.487 119.967 779.654 114.2 787.52 110.2C795.454 106.2 804.554 104.2 814.82 104.2C823.554 104.2 831.854 106.533 839.72 111.2C847.654 115.867 854.187 123.467 859.32 134C864.454 144.467 867.02 157.933 867.02 174.4C867.02 189.667 864.42 203.033 859.22 214.5C854.02 225.9 846.82 234.667 837.62 240.8C828.42 246.933 817.954 250 806.22 250ZM810.82 178.2C815.154 178.2 819.287 177.133 823.22 175C827.22 172.8 830.487 169.9 833.02 166.3C835.554 162.633 836.954 158.667 837.22 154.4C837.22 149.067 836.32 144.167 834.52 139.7C832.72 135.167 830.087 131.567 826.62 128.9C823.154 126.167 819.02 124.8 814.22 124.8C809.887 124.8 805.82 125.867 802.02 128C798.22 130.067 795.12 133.133 792.72 137.2C790.387 141.2 789.22 145.933 789.22 151.4C789.22 159.467 791.054 165.967 794.72 170.9C798.454 175.767 803.82 178.2 810.82 178.2Z" fill="#222A76"/>
<circle cx="175" cy="175" r="82.0312" fill="#0650FB"/>
<path d="M175 247.917C215.271 247.917 247.917 215.271 247.917 175C247.917 134.729 215.271 102.083 175 102.083C134.729 102.083 102.083 134.729 102.083 175C102.083 215.271 134.729 247.917 175 247.917Z" stroke="#0650FB" stroke-width="5.33333" stroke-linecap="round" stroke-linejoin="round"/>
<path d="M160.417 43.75H189.583M175 102.083V43.75V102.083Z" stroke="#0650FB" stroke-width="5.33333" stroke-linecap="round" stroke-linejoin="round"/>
<path d="M257.498 71.8813L278.119 92.5022M226.567 123.433L267.808 82.1918L226.567 123.433Z" stroke="#0650FB" stroke-width="5.33333" stroke-linecap="round" stroke-linejoin="round"/>
<path d="M306.25 160.417V189.583M247.917 175H306.25H247.917Z" stroke="#0650FB" stroke-width="5.33333" stroke-linecap="round" stroke-linejoin="round"/>
<path d="M278.119 257.498L257.498 278.119M226.567 226.567L267.808 267.808L226.567 226.567Z" stroke="#0650FB" stroke-width="5.33333" stroke-linecap="round" stroke-linejoin="round"/>
<path d="M189.583 306.25H160.417M175 247.917V306.25V247.917Z" stroke="#0650FB" stroke-width="5.33333" stroke-linecap="round" stroke-linejoin="round"/>
<path d="M92.5021 278.119L71.8959 257.498M123.433 226.567L82.1917 267.808L123.433 226.567Z" stroke="#0650FB" stroke-width="5.33333" stroke-linecap="round" stroke-linejoin="round"/>
<path d="M43.75 189.583V160.417M102.083 175H43.75H102.083Z" stroke="#0650FB" stroke-width="5.33333" stroke-linecap="round" stroke-linejoin="round"/>
<path d="M71.8813 92.5021L92.5022 71.8959M123.433 123.433L82.1918 82.1917L123.433 123.433Z" stroke="#0650FB" stroke-width="5.33333" stroke-linecap="round" stroke-linejoin="round"/>
</svg>
