<svg width="1723" height="1523" viewBox="0 0 1723 1523" fill="none" xmlns="http://www.w3.org/2000/svg">
<path d="M1643.51 834.258C1643.51 834.258 1681.24 836.381 1666.94 919.923C1652.64 1003.47 1638.3 1046.75 1638.3 1046.75C1638.3 1046.75 1636.96 1065.37 1651.85 1063.69C1666.75 1062.02 1696.14 1047.3 1707.72 1062.57C1719.31 1077.85 1712.08 1099.26 1690.4 1122.17C1668.73 1145.07 1623.03 1197.14 1618.93 1201.87C1614.83 1206.6 1612.3 1215.84 1622.65 1216.25C1633.01 1216.66 1704.89 1202.21 1709.7 1236.77C1714.5 1271.34 1643.58 1325.34 1635.95 1331.38C1628.31 1337.41 1627.38 1341.77 1629.58 1346.28C1631.78 1350.78 1655.65 1343.71 1676.1 1340.43C1696.55 1337.15 1721.21 1337 1722.32 1357.15C1723.44 1377.3 1688.28 1431.31 1576.73 1478.42L1523.62 1497.05L1480.3 1460.84C1392.32 1377.64 1378.32 1314.73 1386.4 1296.26C1394.48 1277.78 1417.39 1286.5 1435.57 1296.78C1453.74 1307.06 1473.45 1322.03 1477.1 1318.53C1480.75 1315.03 1481.38 1310.67 1476.35 1302.33C1471.32 1293.98 1423.8 1218.52 1440.41 1187.87C1457.02 1157.22 1519.3 1195.92 1529.13 1199.04C1538.96 1202.17 1539.78 1192.64 1537.62 1186.9C1535.46 1181.17 1510.88 1116.13 1498.59 1087.19C1486.3 1058.25 1486.41 1035.83 1503.24 1025.25C1519.48 1015.01 1541.94 1039 1555.39 1045.85C1568.83 1052.7 1574.01 1034.68 1574.01 1034.68C1574.01 1034.68 1575.83 988.865 1591.66 905.733C1607.49 822.6 1644.4 834.258 1644.4 834.258" fill="#EBEBEB"/>
<path d="M1524.81 1510.49C1536.21 1449.37 1554.6 1340.47 1570.84 1247.02C1587.08 1153.57 1601.91 1069.06 1612.97 1007.94C1618.52 977.394 1623.03 952.7 1626.15 935.529C1627.68 927.037 1628.91 920.408 1629.88 915.826C1630.25 913.629 1630.55 911.915 1630.77 910.724C1631 909.532 1631 908.936 1631 908.936C1631 908.936 1630.81 909.532 1630.59 910.686C1630.36 911.841 1629.99 913.592 1629.54 915.789C1628.61 920.333 1627.31 926.963 1625.63 935.418C1622.28 952.439 1617.59 977.17 1611.93 1007.71C1600.53 1068.79 1585.56 1153.31 1569.28 1246.72C1553 1340.13 1534.83 1449.11 1523.76 1510.27" fill="#E0E0E0"/>
<path d="M1667.46 1084.62C1666.25 1085.24 1665.1 1085.98 1664.03 1086.82C1661.91 1088.35 1658.89 1090.55 1655.17 1093.45C1647.72 1099.11 1637.7 1107.23 1626.79 1116.36L1598.89 1139.9L1590.43 1146.97C1589.33 1147.77 1588.3 1148.68 1587.38 1149.69C1588.6 1149.07 1589.76 1148.34 1590.84 1147.5C1592.97 1146.01 1595.98 1143.77 1599.67 1140.87C1607.12 1135.09 1616.99 1126.86 1627.9 1117.7L1655.91 1094.42L1664.44 1087.38C1665.55 1086.59 1666.57 1085.66 1667.46 1084.62Z" fill="#E0E0E0"/>
<path d="M1582.65 1147.38C1583.06 1147.09 1567.23 1125.67 1547.38 1099.52C1527.53 1073.38 1511.06 1052.37 1510.69 1052.67C1510.32 1052.97 1526.11 1074.42 1546 1100.57C1565.89 1126.71 1582.43 1147.68 1582.65 1147.38Z" fill="#E0E0E0"/>
<path d="M1564.14 1291.97C1563.16 1291 1562.09 1290.13 1560.94 1289.36L1551.89 1282.62C1544.21 1276.96 1533.71 1269.07 1522.42 1259.94C1511.14 1250.82 1501.16 1242.21 1493.97 1235.95L1485.51 1228.51C1484.54 1227.5 1483.44 1226.64 1482.24 1225.94C1483.07 1227.04 1484.01 1228.06 1485.03 1228.99C1486.93 1230.89 1489.68 1233.61 1493.15 1236.85C1500.11 1243.37 1509.98 1252.16 1521.31 1261.28C1532.63 1270.41 1543.32 1278.19 1551.1 1283.63C1555.05 1286.35 1558.25 1288.47 1560.53 1289.92C1561.64 1290.75 1562.86 1291.44 1564.14 1291.97Z" fill="#E0E0E0"/>
<path d="M1653.19 1252.08C1651.91 1252.34 1650.66 1252.76 1649.47 1253.31L1639.79 1257.04C1631.63 1260.39 1620.46 1265.12 1608.09 1270.44C1595.72 1275.77 1584.62 1280.69 1576.62 1284.34L1567.53 1288.84C1566.34 1289.34 1565.21 1289.95 1564.14 1290.67C1565.43 1290.43 1566.68 1290.03 1567.86 1289.48L1577.55 1285.75C1585.7 1282.4 1596.92 1277.67 1609.24 1272.34C1621.57 1267.02 1632.71 1262.1 1640.72 1258.45L1650.18 1254.06C1651.26 1253.52 1652.27 1252.86 1653.19 1252.08Z" fill="#E0E0E0"/>
<path d="M1653.19 1381.81C1651.59 1382.18 1650.03 1382.72 1648.54 1383.41L1636.1 1388.33C1625.63 1392.57 1611.22 1398.53 1595.35 1405.2C1579.48 1411.87 1565.14 1418.01 1554.79 1422.52L1542.57 1427.96C1541.05 1428.57 1539.58 1429.32 1538.18 1430.19C1539.78 1429.8 1541.33 1429.26 1542.83 1428.59L1555.27 1423.67C1565.74 1419.43 1580.16 1413.47 1596.02 1406.8C1611.89 1400.13 1626.23 1393.99 1636.58 1389.48L1648.8 1384.04C1650.33 1383.43 1651.8 1382.68 1653.19 1381.81Z" fill="#E0E0E0"/>
<path d="M1540.67 1428.25C1539.44 1427 1538.11 1425.86 1536.69 1424.83L1525.52 1415.89C1516.09 1408.44 1503.17 1397.86 1489.09 1385.87C1475.01 1373.88 1462.61 1362.78 1453.71 1354.66L1443.09 1345.01C1441.85 1343.77 1440.5 1342.63 1439.07 1341.62C1440.21 1342.96 1441.45 1344.2 1442.79 1345.35C1445.14 1347.77 1448.64 1351.23 1453 1355.4C1461.71 1363.78 1474.04 1375.1 1488.08 1387.06C1502.13 1399.02 1515.27 1409.41 1524.92 1416.86C1529.76 1420.58 1533.67 1423.41 1536.47 1425.35C1537.79 1426.43 1539.19 1427.4 1540.67 1428.25Z" fill="#E0E0E0"/>
<path d="M324.076 314.12C320.016 294.081 332.643 275.049 354.543 270.616C364.12 268.68 374.074 270.628 382.215 276.031C390.356 281.434 396.017 289.849 397.953 299.426C399.889 309.003 397.942 318.957 392.539 327.098C387.136 335.239 378.721 340.9 369.144 342.836C364.295 343.985 359.265 344.15 354.352 343.32C349.438 342.49 344.741 340.683 340.539 338.005C336.337 335.328 332.714 331.834 329.887 327.731C327.059 323.628 325.083 319 324.076 314.12ZM268.207 20.4733L337.149 6.54333L369.553 226.89L323.517 236.201L268.207 20.4733Z" fill="#EBEBEB"/>
<path d="M385.271 343.507C377.86 347.929 369.378 350.233 360.748 350.167C352.119 350.102 343.672 347.669 336.33 343.134C331.533 339.992 327.414 335.922 324.215 331.163C321.017 326.403 318.804 321.052 317.707 315.423C312.865 291.325 328.136 269.313 353.314 264.21C358.922 262.881 364.741 262.701 370.42 263.681C376.1 264.661 381.522 266.781 386.359 269.914C391.197 273.046 395.35 277.125 398.569 281.906C401.787 286.687 404.004 292.071 405.086 297.731C406.258 303.313 406.319 309.071 405.265 314.675C404.21 320.28 402.061 325.622 398.94 330.396C395.436 335.745 390.762 340.229 385.271 343.507ZM344.301 281.418C338.961 284.514 334.734 289.215 332.22 294.852C329.706 300.489 329.032 306.775 330.296 312.816C331.054 316.746 332.595 320.483 334.828 323.804C337.062 327.125 339.941 329.963 343.295 332.147C350.532 336.731 359.287 338.27 367.654 336.43C371.711 335.669 375.577 334.113 379.029 331.85C382.481 329.587 385.451 326.662 387.766 323.245C392.145 316.481 393.659 308.255 391.975 300.376C391.212 296.413 389.652 292.647 387.39 289.305C385.128 285.963 382.21 283.116 378.814 280.936C375.419 278.755 371.615 277.288 367.635 276.621C363.655 275.955 359.581 276.104 355.661 277.06C351.716 277.869 347.938 279.342 344.487 281.418H344.301ZM372.682 232.477C372.045 232.879 371.337 233.157 370.596 233.296L324.449 242.608C322.835 242.895 321.172 242.564 319.792 241.681C318.411 240.797 317.414 239.426 316.999 237.84L261.801 22.1121C261.584 21.2525 261.541 20.358 261.675 19.4815C261.809 18.605 262.118 17.7644 262.583 17.0094C263.053 16.2555 263.672 15.6056 264.402 15.0996C265.132 14.5936 265.958 14.2422 266.829 14.067L335.771 0.137055C336.645 -0.0449397 337.546 -0.04569 338.42 0.134852C339.294 0.315395 340.121 0.673387 340.851 1.18665C341.58 1.69992 342.197 2.35754 342.662 3.11878C343.128 3.88002 343.432 4.72867 343.556 5.61219L375.96 226.033C376.128 227.292 375.925 228.572 375.376 229.716C374.826 230.861 373.955 231.82 372.868 232.477H372.682ZM327.987 228.752L361.955 221.899L331.451 14.5139L276.029 25.6877L327.987 228.752Z" fill="#EBEBEB"/>
<path d="M459.763 288.979C460.796 286.499 462.32 284.254 464.244 282.379C466.169 280.505 468.453 279.04 470.959 278.072C473.465 277.104 476.141 276.654 478.826 276.749C481.511 276.844 484.148 277.482 486.58 278.624C489.065 279.55 491.337 280.97 493.257 282.8C495.178 284.629 496.706 286.829 497.751 289.267C498.796 291.705 499.335 294.329 499.335 296.981C499.336 299.634 498.797 302.258 497.753 304.696C496.769 307.175 495.294 309.43 493.417 311.325C491.54 313.221 489.3 314.717 486.83 315.726C484.361 316.735 481.713 317.234 479.046 317.195C476.379 317.156 473.747 316.579 471.309 315.498C468.781 314.553 466.469 313.109 464.511 311.251C462.553 309.394 460.988 307.162 459.911 304.687C458.833 302.213 458.265 299.547 458.24 296.848C458.214 294.149 458.732 291.473 459.763 288.979ZM523.081 139.995L558.315 154.521L506.506 263.279L482.93 253.558L523.081 139.995Z" fill="#EBEBEB"/>
<path d="M478.423 320.675C475.526 320.547 472.676 319.904 470.005 318.775C463.976 316.365 459.134 311.684 456.522 305.739C454.696 301.382 454.228 296.574 455.179 291.946C456.13 287.318 458.457 283.084 461.854 279.8C465.251 276.516 469.56 274.334 474.217 273.539C478.875 272.744 483.664 273.374 487.958 275.347C490.884 276.436 493.558 278.108 495.818 280.261C498.079 282.415 499.878 285.005 501.108 287.875C502.337 290.745 502.971 293.834 502.97 296.956C502.97 300.078 502.336 303.168 501.106 306.037C499.324 310.538 496.179 314.369 492.112 316.994C488.045 319.619 483.258 320.906 478.423 320.675ZM478.795 280.412C475.462 280.205 472.149 281.05 469.322 282.828C466.495 284.606 464.298 287.226 463.04 290.319C462.193 292.316 461.757 294.463 461.757 296.633C461.757 298.802 462.193 300.949 463.04 302.946C464.923 307.19 468.402 310.522 472.724 312.22C474.788 313.087 477.004 313.533 479.242 313.533C481.481 313.533 483.697 313.087 485.76 312.22C489.764 310.492 492.923 307.252 494.55 303.207C495.4 301.192 495.833 299.026 495.821 296.84C495.81 294.654 495.355 292.493 494.485 290.487C493.615 288.482 492.346 286.674 490.757 285.173C489.168 283.671 487.291 282.508 485.239 281.753C483.183 280.944 481.004 280.49 478.795 280.412ZM506.357 266.966C505.947 266.955 505.543 266.866 505.165 266.706L481.589 256.984C480.776 256.602 480.129 255.94 479.766 255.119C479.404 254.297 479.35 253.373 479.615 252.515L519.84 138.766C520.198 137.849 520.904 137.111 521.805 136.713C522.705 136.316 523.726 136.29 524.645 136.643L559.88 151.169C560.776 151.555 561.484 152.277 561.854 153.18C562.216 154.076 562.216 155.078 561.854 155.974L509.747 264.955C509.455 265.599 508.974 266.139 508.369 266.505C507.764 266.87 507.063 267.044 506.357 267.004V266.966ZM487.399 251.696L504.756 258.884L553.622 156.346L525.278 144.651L487.399 251.696Z" fill="#EBEBEB"/>
<path d="M165.074 398.854H1465.25C1482.95 398.854 1499.93 405.886 1512.45 418.403C1524.96 430.92 1532 447.897 1532 465.598V1520.4H98.329V465.561C98.3389 447.866 105.375 430.899 117.891 418.39C130.407 405.881 147.378 398.854 165.074 398.854Z" fill="#FAFAFA"/>
<path d="M1326.73 1252.9C1326.73 1253.46 1095.44 1253.91 810.172 1253.91C524.906 1253.91 293.721 1253.46 293.721 1252.9C293.721 1252.34 524.943 1251.93 810.321 1251.93C1095.7 1251.93 1326.73 1252.38 1326.73 1252.9Z" fill="#263238"/>
<path d="M1231.83 1317.34C1231.83 1317.86 1055.06 1318.31 837.026 1318.31C618.989 1318.31 442.22 1317.86 442.22 1317.34C442.22 1316.82 618.952 1316.33 837.026 1316.33C1055.1 1316.33 1231.83 1316.67 1231.83 1317.34Z" fill="#263238"/>
<path d="M1531.96 398.854H98.329V833.774H1531.96V398.854Z" fill="#FF725E"/>
<path d="M1534.01 1522.19H96.3177V396.992H1534.01V1522.19ZM100.042 1518.46H1530.28V400.716H100.042V1518.46Z" fill="#263238"/>
<path d="M691.32 972.812L659.103 1071.18H634.669L613.029 1004.47L590.682 1071.07H566.36L534.031 972.701H557.645L579.992 1041.87L603.197 972.701H624.278L646.625 1042.42L669.531 972.701L691.32 972.812Z" fill="#263238"/>
<path d="M763.726 1028.05V1071.18H743.204V1061.79C739.107 1068.65 731.248 1072.33 720.149 1072.33C702.42 1072.33 691.879 1062.46 691.879 1049.43C691.879 1036.39 701.302 1026.78 724.357 1026.78H741.788C741.788 1017.36 736.164 1011.88 724.357 1011.88C716.526 1011.82 708.884 1014.29 702.569 1018.92L694.71 1003.58C704.43 997.375 715.772 994.199 727.3 994.452C750.355 994.452 763.726 1005.14 763.726 1028.05ZM741.788 1047.3V1039.56H726.89C716.647 1039.56 713.407 1043.28 713.407 1048.42C713.407 1053.56 718.026 1057.55 725.773 1057.55C729.182 1057.75 732.568 1056.87 735.445 1055.03C738.323 1053.19 740.543 1050.48 741.788 1047.3Z" fill="#263238"/>
<path d="M830.471 994.452V1014.68C828.646 1014.68 827.23 1014.42 825.554 1014.42C813.487 1014.42 805.479 1021.01 805.479 1035.5V1071.18H783.541V995.569H804.473V1005.55C809.837 998.251 818.887 994.452 830.471 994.452Z" fill="#263238"/>
<path d="M920.866 1027.9V1071.18H898.929V1031.29C898.929 1019.03 893.304 1013.45 883.621 1013.45C873.08 1013.45 865.482 1019.89 865.482 1033.82V1071.07H843.544V995.458H864.513V1004.47C867.744 1001.15 871.639 998.537 875.946 996.817C880.252 995.097 884.872 994.304 889.505 994.49C907.383 994.452 920.866 1004.84 920.866 1027.9Z" fill="#263238"/>
<path d="M938.074 972.812C938.113 971.094 938.504 969.402 939.224 967.841C939.944 966.28 940.977 964.884 942.258 963.739C943.54 962.593 945.043 961.723 946.675 961.183C948.306 960.642 950.031 960.442 951.743 960.596C959.863 960.596 965.375 965.661 965.375 972.403C965.122 975.817 963.6 979.014 961.108 981.362C958.616 983.711 955.336 985.042 951.912 985.093C948.488 985.145 945.169 983.913 942.608 981.64C940.047 979.367 938.43 976.218 938.074 972.812ZM940.756 995.57H962.693V1071.18H940.681L940.756 995.57Z" fill="#263238"/>
<path d="M1060.31 1027.9V1071.18H1038.38V1031.29C1038.38 1019.03 1032.75 1013.45 1023.07 1013.45C1012.53 1013.45 1004.93 1019.89 1004.93 1033.82V1071.07H982.992V995.458H1003.92V1004.47C1007.17 1001.15 1011.07 998.542 1015.38 996.823C1019.69 995.103 1024.32 994.308 1028.95 994.49C1046.79 994.452 1060.31 1004.84 1060.31 1027.9Z" fill="#263238"/>
<path d="M1158.98 995.57V1058.55C1158.98 1086.64 1143.78 1099.52 1116.52 1099.52C1102.18 1099.52 1088.29 1095.8 1079.27 1089.09L1087.99 1073.38C1095.76 1078.98 1105.11 1081.98 1114.69 1081.94C1130.15 1081.94 1137.04 1074.9 1137.04 1061.27V1058.03C1133.96 1061.21 1130.24 1063.7 1126.12 1065.32C1122 1066.95 1117.59 1067.67 1113.17 1067.45C1092.2 1067.45 1075.36 1053 1075.36 1030.92C1075.36 1008.83 1092.2 994.378 1113.17 994.378C1117.89 994.101 1122.61 994.937 1126.95 996.82C1131.29 998.702 1135.13 1001.58 1138.16 1005.22V995.495L1158.98 995.57ZM1137.34 1030.99C1137.34 1019.82 1129.03 1012.37 1117.52 1012.37C1106.02 1012.37 1097.56 1019.82 1097.56 1030.99C1097.56 1042.16 1105.98 1049.61 1117.52 1049.61C1129.07 1049.61 1137.34 1042.09 1137.34 1030.99Z" fill="#263238"/>
<path d="M1176.15 1059.52C1176.4 1056.12 1177.93 1052.94 1180.43 1050.62C1182.93 1048.29 1186.22 1047 1189.63 1047C1193.04 1047 1196.33 1048.29 1198.83 1050.62C1201.33 1052.94 1202.86 1056.12 1203.12 1059.52C1203.12 1063.1 1201.69 1066.53 1199.17 1069.05C1196.64 1071.58 1193.21 1073 1189.63 1073C1186.06 1073 1182.63 1071.58 1180.1 1069.05C1177.57 1066.53 1176.15 1063.1 1176.15 1059.52ZM1176.45 972.812H1202.52L1198.16 1037.02H1180.92L1176.45 972.812Z" fill="#263238"/>
<path d="M665.844 1160.9H644.577L640.107 1170.96H635.898L653.367 1132.75H657.315L674.783 1170.96H670.537L665.844 1160.9ZM664.354 1157.63L655.192 1137.1L646.029 1157.63H664.354Z" fill="#263238"/>
<path d="M695.045 1169.21C693.319 1170.57 691.17 1171.28 688.974 1171.22C687.841 1171.37 686.687 1171.26 685.604 1170.9C684.52 1170.53 683.535 1169.92 682.725 1169.12C681.914 1168.31 681.301 1167.33 680.931 1166.25C680.562 1165.16 680.446 1164.01 680.593 1162.88V1145.52H675.453V1142.28H680.593V1136.02H684.318V1142.28H693.034V1145.56H684.318V1162.69C684.221 1163.38 684.279 1164.08 684.489 1164.74C684.699 1165.4 685.055 1166.01 685.531 1166.51C686.007 1167.01 686.59 1167.41 687.238 1167.65C687.885 1167.9 688.581 1168 689.272 1167.94C690.821 1167.98 692.329 1167.45 693.518 1166.45L695.045 1169.21Z" fill="#263238"/>
<path d="M716.424 1169.21C714.713 1170.57 712.576 1171.28 710.39 1171.22C709.254 1171.38 708.097 1171.27 707.008 1170.91C705.92 1170.55 704.93 1169.94 704.115 1169.13C703.3 1168.33 702.683 1167.34 702.311 1166.26C701.94 1165.17 701.824 1164.02 701.973 1162.88V1145.52H696.87V1142.28H701.973V1136.02H705.697V1142.28H714.599V1145.56H705.846V1162.69C705.748 1163.38 705.807 1164.09 706.019 1164.75C706.231 1165.41 706.59 1166.02 707.07 1166.53C707.551 1167.03 708.139 1167.42 708.791 1167.67C709.444 1167.91 710.143 1168.01 710.837 1167.94C712.385 1167.97 713.891 1167.44 715.083 1166.45L716.424 1169.21Z" fill="#263238"/>
<path d="M747.45 1157.81H723.426C723.589 1160.62 724.857 1163.24 726.951 1165.11C729.045 1166.98 731.796 1167.95 734.6 1167.79C736.249 1167.86 737.893 1167.56 739.413 1166.92C740.932 1166.27 742.291 1165.3 743.39 1164.07L745.587 1166.57C743.518 1168.69 740.871 1170.17 737.973 1170.81C735.076 1171.44 732.054 1171.22 729.282 1170.16C726.509 1169.11 724.107 1167.26 722.371 1164.85C720.636 1162.45 719.643 1159.59 719.515 1156.62C719.418 1154.73 719.711 1152.83 720.375 1151.06C721.04 1149.28 722.062 1147.66 723.378 1146.29C724.695 1144.93 726.277 1143.85 728.028 1143.12C729.779 1142.39 731.661 1142.03 733.557 1142.06C735.448 1142.02 737.327 1142.38 739.073 1143.11C740.819 1143.84 742.394 1144.92 743.7 1146.29C745.006 1147.66 746.014 1149.28 746.659 1151.06C747.304 1152.84 747.574 1154.73 747.45 1156.62C747.487 1156.92 747.45 1157.37 747.45 1157.81ZM723.426 1154.91H743.799C743.642 1152.31 742.501 1149.87 740.608 1148.09C738.715 1146.31 736.213 1145.32 733.613 1145.32C731.013 1145.32 728.511 1146.31 726.618 1148.09C724.725 1149.87 723.583 1152.31 723.426 1154.91Z" fill="#263238"/>
<path d="M781.828 1154.31V1170.96H778.103V1154.68C778.283 1153.48 778.188 1152.26 777.825 1151.1C777.463 1149.94 776.842 1148.88 776.009 1148C775.177 1147.12 774.155 1146.44 773.021 1146.01C771.887 1145.58 770.67 1145.41 769.462 1145.52C768.091 1145.42 766.716 1145.62 765.431 1146.11C764.147 1146.6 762.987 1147.37 762.031 1148.36C761.075 1149.34 760.348 1150.53 759.901 1151.83C759.454 1153.13 759.297 1154.51 759.443 1155.88V1170.96H755.718V1142.28H759.443V1147.57C760.606 1145.76 762.231 1144.3 764.15 1143.33C766.068 1142.36 768.211 1141.92 770.356 1142.06C771.944 1142.01 773.524 1142.3 774.991 1142.91C776.458 1143.51 777.778 1144.43 778.864 1145.59C779.949 1146.75 780.775 1148.13 781.286 1149.63C781.797 1151.13 781.982 1152.73 781.828 1154.31Z" fill="#263238"/>
<path d="M807.49 1169.21C805.764 1170.57 803.616 1171.28 801.419 1171.22C800.283 1171.38 799.126 1171.27 798.037 1170.91C796.949 1170.55 795.959 1169.94 795.144 1169.13C794.329 1168.33 793.712 1167.34 793.34 1166.26C792.969 1165.17 792.853 1164.02 793.001 1162.88V1145.52H787.899V1142.28H793.001V1136.02H796.726V1142.28H805.479V1145.56H796.726V1162.69C796.628 1163.38 796.687 1164.09 796.899 1164.75C797.111 1165.41 797.47 1166.02 797.95 1166.53C798.431 1167.03 799.019 1167.42 799.671 1167.67C800.323 1167.91 801.023 1168.01 801.717 1167.94C803.265 1167.97 804.771 1167.44 805.963 1166.45L807.49 1169.21Z" fill="#263238"/>
<path d="M813.635 1133.19C813.716 1132.49 814.05 1131.85 814.576 1131.38C815.101 1130.91 815.781 1130.65 816.485 1130.65C817.189 1130.65 817.868 1130.91 818.394 1131.38C818.919 1131.85 819.254 1132.49 819.334 1133.19C819.254 1133.89 818.919 1134.54 818.394 1135.01C817.868 1135.48 817.189 1135.73 816.485 1135.73C815.781 1135.73 815.101 1135.48 814.576 1135.01C814.05 1134.54 813.716 1133.89 813.635 1133.19ZM814.529 1142.24H818.254V1170.96H814.529V1142.24Z" fill="#263238"/>
<path d="M826.336 1156.58C826.344 1153.7 827.205 1150.88 828.813 1148.49C830.42 1146.09 832.7 1144.23 835.367 1143.12C838.033 1142.02 840.966 1141.74 843.794 1142.3C846.623 1142.87 849.221 1144.26 851.261 1146.3C853.3 1148.34 854.69 1150.93 855.255 1153.76C855.819 1156.59 855.533 1159.52 854.433 1162.19C853.332 1164.86 851.467 1167.14 849.072 1168.75C846.676 1170.35 843.859 1171.21 840.974 1171.22C839.032 1171.29 837.096 1170.97 835.287 1170.26C833.478 1169.55 831.835 1168.47 830.461 1167.1C829.087 1165.72 828.011 1164.08 827.302 1162.27C826.592 1160.46 826.263 1158.53 826.336 1156.58ZM851.589 1156.58C851.487 1154.5 850.776 1152.49 849.543 1150.81C848.311 1149.13 846.611 1147.84 844.656 1147.12C842.701 1146.39 840.575 1146.26 838.544 1146.73C836.512 1147.2 834.663 1148.26 833.227 1149.77C831.79 1151.28 830.829 1153.18 830.463 1155.23C830.097 1157.29 830.341 1159.4 831.166 1161.32C831.991 1163.23 833.36 1164.87 835.104 1166.01C836.847 1167.15 838.888 1167.76 840.974 1167.76C842.421 1167.78 843.857 1167.5 845.191 1166.94C846.526 1166.38 847.728 1165.55 848.723 1164.5C849.718 1163.45 850.484 1162.2 850.97 1160.84C851.457 1159.48 851.655 1158.03 851.552 1156.58H851.589Z" fill="#263238"/>
<path d="M889.841 1154.31V1170.96H886.116V1154.68C886.296 1153.48 886.201 1152.26 885.838 1151.1C885.475 1149.94 884.855 1148.88 884.022 1148C883.19 1147.12 882.168 1146.44 881.034 1146.01C879.9 1145.58 878.683 1145.41 877.475 1145.52C876.104 1145.42 874.728 1145.62 873.444 1146.11C872.16 1146.6 871 1147.37 870.044 1148.36C869.088 1149.34 868.361 1150.53 867.914 1151.83C867.467 1153.13 867.31 1154.51 867.456 1155.88V1170.96H863.731V1142.28H867.456V1147.57C868.619 1145.76 870.244 1144.3 872.163 1143.33C874.081 1142.36 876.224 1141.92 878.369 1142.06C879.957 1142.01 881.537 1142.3 883.004 1142.91C884.471 1143.51 885.791 1144.43 886.877 1145.59C887.962 1146.75 888.788 1148.13 889.299 1149.63C889.81 1151.13 889.995 1152.73 889.841 1154.31Z" fill="#263238"/>
<path d="M943.735 1156.58C943.839 1158.5 943.544 1160.42 942.869 1162.22C942.194 1164.02 941.153 1165.65 939.812 1167.03C938.472 1168.41 936.86 1169.49 935.08 1170.21C933.3 1170.93 931.39 1171.28 929.47 1171.22C927.318 1171.29 925.184 1170.81 923.273 1169.82C921.362 1168.83 919.738 1167.36 918.557 1165.56V1181.54H914.833V1142.28H918.557V1147.94C919.733 1146.06 921.387 1144.53 923.35 1143.49C925.313 1142.46 927.514 1141.96 929.731 1142.06C931.621 1142.04 933.495 1142.4 935.239 1143.13C936.983 1143.86 938.559 1144.93 939.871 1146.3C941.182 1147.66 942.202 1149.27 942.867 1151.04C943.531 1152.81 943.827 1154.7 943.735 1156.58ZM940.011 1156.58C939.916 1154.49 939.209 1152.48 937.979 1150.78C936.748 1149.09 935.047 1147.79 933.088 1147.06C931.128 1146.32 928.995 1146.18 926.955 1146.65C924.914 1147.11 923.055 1148.17 921.608 1149.68C920.161 1151.19 919.19 1153.09 918.815 1155.15C918.441 1157.21 918.679 1159.34 919.5 1161.26C920.321 1163.19 921.69 1164.83 923.436 1165.98C925.182 1167.14 927.228 1167.76 929.321 1167.76C930.759 1167.75 932.181 1167.46 933.5 1166.89C934.819 1166.32 936.009 1165.48 936.995 1164.44C937.982 1163.39 938.745 1162.16 939.237 1160.81C939.73 1159.46 939.943 1158.02 939.862 1156.58H940.011Z" fill="#263238"/>
<path d="M951.669 1130.47H955.393V1170.96H951.669V1130.47Z" fill="#263238"/>
<path d="M991.336 1157.81H967.349C967.425 1159.2 967.775 1160.56 968.378 1161.82C968.981 1163.07 969.826 1164.2 970.864 1165.12C971.902 1166.05 973.113 1166.76 974.427 1167.22C975.742 1167.68 977.133 1167.88 978.523 1167.79C980.17 1167.85 981.809 1167.54 983.327 1166.9C984.844 1166.25 986.204 1165.29 987.313 1164.07L989.473 1166.57C988.079 1168.13 986.352 1169.37 984.419 1170.18C982.485 1170.99 980.394 1171.36 978.299 1171.26C976.34 1171.35 974.383 1171.04 972.551 1170.34C970.718 1169.64 969.05 1168.57 967.651 1167.2C966.252 1165.82 965.153 1164.17 964.421 1162.35C963.69 1160.53 963.342 1158.58 963.401 1156.62C963.401 1152.92 964.873 1149.36 967.492 1146.74C970.111 1144.13 973.664 1142.65 977.368 1142.65C981.073 1142.65 984.625 1144.13 987.245 1146.74C989.864 1149.36 991.336 1152.92 991.336 1156.62C991.41 1156.92 991.336 1157.37 991.336 1157.81ZM967.349 1154.91H987.686C987.467 1152.36 986.302 1149.99 984.419 1148.26C982.536 1146.53 980.073 1145.57 977.517 1145.57C974.962 1145.57 972.499 1146.53 970.616 1148.26C968.733 1149.99 967.567 1152.36 967.349 1154.91Z" fill="#263238"/>
<path d="M1020.01 1153.16V1170.96H1016.29V1166.45C1015.23 1168.07 1013.75 1169.36 1012.01 1170.2C1010.27 1171.04 1008.34 1171.39 1006.42 1171.22C999.939 1171.22 995.954 1167.83 995.954 1162.88C995.954 1157.92 998.785 1154.76 1007.13 1154.76H1016.29V1153.01C1016.29 1148.09 1013.5 1145.56 1008.17 1145.56C1004.68 1145.51 1001.28 1146.71 998.598 1148.95L996.848 1146.04C1000.2 1143.49 1004.33 1142.17 1008.54 1142.32C1015.96 1142.02 1020.01 1145.74 1020.01 1153.16ZM1016.29 1162.32V1157.63H1007.28C1001.73 1157.63 999.827 1159.82 999.827 1162.77C999.827 1165.71 1002.51 1168.17 1007.09 1168.17C1009.05 1168.3 1010.99 1167.8 1012.65 1166.75C1014.3 1165.7 1015.58 1164.15 1016.29 1162.32Z" fill="#263238"/>
<path d="M1026.72 1167.68L1028.47 1164.63C1031.45 1166.75 1035.02 1167.87 1038.67 1167.83C1044.11 1167.83 1046.35 1165.97 1046.35 1163.14C1046.35 1155.69 1027.72 1161.57 1027.72 1150.21C1027.72 1145.52 1031.75 1142.02 1038.9 1142.02C1042.47 1141.97 1045.99 1142.89 1049.07 1144.7L1047.39 1147.79C1044.87 1146.15 1041.91 1145.3 1038.9 1145.37C1033.72 1145.37 1031.45 1147.38 1031.45 1150.1C1031.45 1157.85 1050.07 1152 1050.07 1163.03C1050.07 1167.98 1045.71 1171.22 1038.23 1171.22C1034.11 1171.3 1030.08 1170.06 1026.72 1167.68Z" fill="#263238"/>
<path d="M1082.36 1157.81H1058.38C1058.54 1160.62 1059.81 1163.24 1061.9 1165.11C1064 1166.98 1066.75 1167.95 1069.55 1167.79C1071.2 1167.85 1072.84 1167.54 1074.36 1166.9C1075.87 1166.25 1077.23 1165.29 1078.34 1164.07L1080.54 1166.57C1078.47 1168.69 1075.82 1170.17 1072.93 1170.81C1070.03 1171.45 1067.01 1171.22 1064.23 1170.16C1061.46 1169.11 1059.06 1167.26 1057.32 1164.85C1055.59 1162.45 1054.59 1159.59 1054.47 1156.62C1054.36 1154.73 1054.65 1152.84 1055.31 1151.06C1055.97 1149.28 1056.99 1147.66 1058.31 1146.3C1059.62 1144.93 1061.2 1143.85 1062.95 1143.12C1064.7 1142.39 1066.58 1142.03 1068.47 1142.06C1070.36 1142.02 1072.24 1142.38 1073.99 1143.11C1075.74 1143.84 1077.32 1144.92 1078.63 1146.29C1079.94 1147.66 1080.95 1149.28 1081.6 1151.06C1082.25 1152.84 1082.52 1154.73 1082.4 1156.62C1082.44 1156.92 1082.36 1157.37 1082.36 1157.81ZM1058.38 1154.91H1078.71C1078.5 1152.36 1077.33 1149.99 1075.45 1148.26C1073.56 1146.53 1071.1 1145.57 1068.55 1145.57C1065.99 1145.57 1063.53 1146.53 1061.64 1148.26C1059.76 1149.99 1058.6 1152.36 1058.38 1154.91Z" fill="#263238"/>
<path d="M723.873 746.283C717.314 746.278 710.871 744.549 705.191 741.271C699.51 737.992 694.79 733.278 691.505 727.601C688.219 721.924 686.483 715.483 686.471 708.924C686.458 702.365 688.169 695.918 691.432 690.228L798.663 503.18C801.92 497.491 806.63 492.77 812.31 489.498C817.99 486.226 824.437 484.521 830.992 484.557C837.548 484.517 843.996 486.22 849.677 489.493C855.358 492.765 860.067 497.489 863.321 503.18L971.707 689.595C975.068 695.263 976.865 701.722 976.914 708.312C976.963 714.901 975.263 721.386 971.988 727.104C968.712 732.823 963.978 737.569 958.269 740.86C952.559 744.151 946.079 745.868 939.489 745.836L723.836 746.507L723.873 746.283ZM831.141 495.544C826.532 495.541 822.005 496.759 818.02 499.076C814.036 501.392 810.736 504.723 808.458 508.729L701.228 695.778C698.936 699.769 697.734 704.293 697.742 708.896C697.75 713.498 698.967 718.018 701.272 722.001C703.577 725.985 706.889 729.293 710.875 731.594C714.861 733.894 719.382 735.107 723.985 735.109L939.638 734.439C944.267 734.479 948.823 733.286 952.838 730.983C956.853 728.68 960.183 725.349 962.485 721.333C964.787 717.317 965.978 712.761 965.936 708.132C965.894 703.503 964.621 698.969 962.246 694.996L853.861 508.766C851.585 504.748 848.281 501.405 844.289 499.082C840.297 496.759 835.76 495.538 831.141 495.544Z" fill="white"/>
<path d="M816.206 685.721C816.199 683.859 816.569 682.014 817.294 680.299C818.019 678.583 819.083 677.031 820.422 675.737C821.761 674.443 823.349 673.433 825.088 672.768C826.828 672.102 828.684 671.796 830.545 671.866C832.421 671.755 834.3 672.026 836.068 672.664C837.836 673.301 839.455 674.292 840.828 675.575C842.201 676.859 843.298 678.408 844.054 680.129C844.809 681.85 845.206 683.706 845.221 685.585C845.236 687.464 844.869 689.327 844.142 691.06C843.414 692.793 842.342 694.359 840.99 695.665C839.638 696.97 838.035 697.987 836.278 698.653C834.521 699.319 832.646 699.621 830.769 699.54C828.896 699.625 827.026 699.331 825.269 698.677C823.513 698.022 821.907 697.019 820.547 695.729C819.187 694.439 818.102 692.888 817.356 691.168C816.61 689.448 816.219 687.596 816.206 685.721ZM816.652 573.388H843.097L839.372 657.005H821.681L816.652 573.388Z" fill="white"/>
<path d="M696.386 788.445C694.707 788.078 693.08 787.503 691.544 786.732C687.247 784.886 683.132 782.641 679.253 780.028C666.295 771.356 656.096 759.15 649.864 744.858C643.632 730.566 641.629 714.787 644.093 699.391C644.782 694.773 645.917 690.232 647.482 685.833C647.982 684.184 648.67 682.597 649.53 681.103C647.776 687.219 646.408 693.439 645.433 699.726C643.397 714.844 645.546 730.231 651.647 744.212C657.747 758.194 667.566 770.234 680.035 779.022C685.286 782.497 690.747 785.644 696.386 788.445Z" fill="white"/>
<path d="M650.387 783.901C650.387 783.901 649.419 783.343 647.892 782.002C645.741 780.146 643.748 778.115 641.932 775.931C635.798 768.771 630.969 760.589 627.667 751.758C624.344 742.93 622.58 733.591 622.453 724.159C622.415 721.321 622.577 718.483 622.937 715.667C622.984 714.61 623.198 713.566 623.57 712.576C623.905 712.576 623.57 717.045 623.831 724.122C624.792 742.677 631.48 760.477 642.975 775.074C647.556 780.624 650.611 783.641 650.387 783.901Z" fill="white"/>
<path d="M1026.61 654.36C1027.25 655.659 1027.73 657.036 1028.02 658.458C1028.54 660.054 1028.95 661.684 1029.25 663.337C1029.74 665.525 1030.12 667.738 1030.37 669.966C1031.14 675.743 1031.38 681.578 1031.08 687.398C1030.65 694.529 1029.53 701.602 1027.72 708.516C1025.78 715.402 1023.19 722.086 1019.98 728.48C1017.31 733.72 1014.16 738.706 1010.59 743.378C1009.14 745.389 1007.57 747.103 1006.27 748.518C1005.18 749.841 1004 751.085 1002.73 752.243C1001.75 753.288 1000.66 754.236 999.492 755.073C999.194 754.775 1003.7 750.604 1009.47 742.67C1012.85 737.961 1015.83 732.977 1018.38 727.772C1024.64 715.166 1028.35 701.444 1029.29 687.398C1029.66 681.676 1029.58 675.934 1029.03 670.227C1028.02 660.171 1026.23 654.36 1026.61 654.36Z" fill="white"/>
<path d="M1051 695.331C1051.64 698.555 1051.82 701.853 1051.52 705.126C1050.97 721.023 1046.64 736.559 1038.9 750.455C1037.45 753.396 1035.6 756.118 1033.39 758.537C1034.64 755.548 1036.07 752.638 1037.67 749.822C1044.62 735.849 1048.86 720.681 1050.15 705.126C1050.24 701.847 1050.52 698.576 1051 695.331Z" fill="white"/>
<path d="M99.1857 967.896C99.1857 967.896 180.084 946.405 184.851 950.279C209.657 970.056 340.837 954.562 340.837 954.562L466.02 989.908C466.02 989.908 486.356 1139.86 500.1 1198.48C509.263 1237.48 474.847 1296.11 474.847 1296.11L430.674 1456.26L468.851 1519.36L99.0367 1519.17V967.933L99.1857 967.896Z" fill="#FF725E"/>
<path d="M421.176 1140.34C421.176 1140.34 420.059 1140.34 417.936 1140.68C415.813 1141.01 412.647 1141.09 408.624 1141.57C397.255 1142.82 385.955 1144.63 374.768 1147.01C360.54 1149.92 343.816 1154.13 325.193 1158.67C315.882 1160.9 306.049 1163.21 295.807 1165.26C290.667 1166.23 285.489 1167.35 280.089 1167.87L276.029 1168.32H271.932C269.176 1168.32 266.42 1168.54 263.626 1168.32C242.826 1167.17 222.158 1164.29 201.835 1159.71C183.212 1155.99 166.228 1151.85 152.075 1148.76C137.921 1145.67 126.412 1143.29 118.554 1142.09C114.568 1141.35 111.402 1141.05 109.317 1140.75C107.231 1140.46 106.076 1140.23 106.076 1140.23C106.076 1140.23 110.583 1140.49 118.628 1141.65C126.673 1142.8 138.182 1144.96 152.373 1147.94C166.563 1150.92 183.399 1154.83 202.17 1158.63C222.449 1163.16 243.066 1166.01 263.812 1167.16C266.569 1167.35 269.325 1167.16 272.044 1167.16H276.103C277.444 1167.16 278.748 1166.86 280.089 1166.71C285.415 1166.23 290.629 1165.11 295.732 1164.14C305.975 1162.13 315.77 1159.82 325.082 1157.63C343.705 1153.16 360.503 1148.99 374.73 1146.23C390.007 1142.89 405.55 1140.93 421.176 1140.34Z" fill="#FAFAFA"/>
<path d="M437.08 1427.1L434.175 1425.13C432.35 1423.75 429.519 1421.92 425.869 1419.58C415.431 1413.14 404.314 1407.89 392.72 1403.9C375.512 1398.04 357.518 1394.81 339.347 1394.32C317.074 1394.59 294.846 1396.41 272.826 1399.76C250.755 1403.06 228.526 1405.18 206.23 1406.13C187.977 1406.73 169.721 1405.04 151.889 1401.1C139.876 1398.38 128.278 1394.07 117.399 1388.29C113.674 1386.17 110.695 1384.57 108.795 1383.11C106.896 1381.66 105.927 1381.14 105.927 1381.14C105.927 1381.14 107.007 1381.73 108.944 1382.93C110.881 1384.12 113.786 1385.83 117.622 1387.88C128.559 1393.49 140.177 1397.66 152.187 1400.28C169.959 1404.11 188.138 1405.71 206.305 1405.05C228.563 1404.06 250.754 1401.91 272.789 1398.61C294.854 1395.23 317.136 1393.45 339.459 1393.28C357.734 1393.8 375.823 1397.11 393.093 1403.11C404.722 1407.19 415.845 1412.59 426.242 1419.2C429.966 1421.59 432.648 1423.52 434.436 1424.94C436.223 1426.36 437.08 1427.1 437.08 1427.1Z" fill="#FAFAFA"/>
<path d="M442.294 1479.95C442.294 1479.95 441.14 1480.32 438.905 1480.92C436.67 1481.52 433.43 1482.37 429.258 1483.71C417.527 1487.52 406.013 1491.98 394.769 1497.05C378.185 1504.89 360.885 1511.13 343.109 1515.67C332.514 1518.07 321.68 1519.26 310.817 1519.21C299.168 1519.03 287.561 1517.78 276.141 1515.48C252.676 1510.72 231.111 1503.34 211.258 1497.64C193.769 1492.25 175.792 1488.58 157.587 1486.69C145.318 1485.46 132.939 1485.9 120.788 1488C116.505 1488.85 113.339 1489.56 110.993 1490.23C108.646 1490.9 107.603 1491.09 107.603 1491.09C107.603 1491.09 108.721 1490.68 110.918 1490.01C113.116 1489.34 116.431 1488.48 120.714 1487.55C132.894 1485.29 145.327 1484.73 157.662 1485.87C175.939 1487.67 193.993 1491.27 211.556 1496.64C231.446 1502.3 253.011 1509.6 276.364 1514.33C287.725 1516.61 299.269 1517.85 310.854 1518.05C321.627 1518.1 332.372 1516.94 342.885 1514.59C360.61 1510 377.867 1503.76 394.434 1495.97C405.719 1490.94 417.299 1486.6 429.109 1482.97C433.318 1481.67 436.559 1480.88 438.868 1480.36L442.294 1479.95Z" fill="#FAFAFA"/>
<g opacity="0.3">
<path opacity="0.3" d="M441.624 1417.16C443.449 1360.77 452.798 1294.65 444.641 1242.1C456.075 1266.46 468.255 1320.8 468.255 1320.8C466.322 1329.98 463.834 1339.04 460.806 1347.92C454.511 1369.18 447.956 1395.96 441.661 1417.27" fill="black"/>
</g>
<path d="M465.052 1299.64C465.052 1299.64 463.897 1298.86 461.811 1297.3C458.799 1294.99 455.652 1292.86 452.388 1290.93C440.184 1283.96 426.8 1279.3 412.907 1277.19C392.367 1274.09 371.461 1274.36 351.005 1277.97C327.875 1281.69 303.069 1289.14 276.737 1295.4C250.404 1301.66 224.592 1306.57 201.053 1303.78C180.281 1301.54 160.089 1295.55 141.46 1286.09C134.319 1282.46 127.514 1278.21 121.124 1273.39C118.405 1271.11 115.835 1269.03 113.674 1266.98C111.514 1264.93 109.54 1262.92 107.901 1261.06L103.767 1255.88C102.809 1254.58 101.926 1253.22 101.122 1251.82C99.7444 1249.62 99.074 1248.39 99.074 1248.39C99.074 1248.39 99.8934 1249.51 101.309 1251.71C102.054 1252.75 102.836 1254.2 104.028 1255.69L108.236 1260.76C109.913 1262.59 111.961 1264.48 114.047 1266.57C116.133 1268.66 118.814 1270.67 121.496 1272.87C127.891 1277.62 134.697 1281.79 141.832 1285.34C160.408 1294.65 180.505 1300.54 201.165 1302.74C224.518 1305.38 250.255 1300.5 276.476 1294.28C302.697 1288.06 327.577 1280.61 350.968 1276.92C371.532 1273.33 392.547 1273.16 413.168 1276.4C427.08 1278.61 440.456 1283.4 452.612 1290.52C455.856 1292.53 458.978 1294.73 461.96 1297.11C464.046 1298.71 465.052 1299.64 465.052 1299.64Z" fill="#FAFAFA"/>
<path d="M386.5 1426.73C385.84 1427.01 385.154 1427.22 384.452 1427.36L378.455 1428.81C373.278 1430.04 365.754 1431.72 356.406 1433.73C337.783 1437.72 311.711 1442.93 283.255 1448.18C254.799 1453.43 228.578 1457.72 209.731 1460.58C200.308 1462 192.636 1463.12 187.384 1463.79L181.313 1464.57C180.596 1464.67 179.869 1464.67 179.153 1464.57C179.834 1464.34 180.531 1464.17 181.238 1464.05L187.272 1462.93L209.62 1459.21C228.243 1456 254.315 1451.53 283.031 1446.28C311.748 1441.03 337.522 1436.04 356.257 1432.35L378.418 1428.07L384.489 1426.99C385.148 1426.83 385.822 1426.74 386.5 1426.73Z" fill="#263238"/>
<path d="M393.502 1294.58C393.533 1295.34 393.47 1296.1 393.316 1296.85C393.055 1298.3 392.944 1300.58 392.273 1303.26C390.667 1311.08 388.167 1318.69 384.824 1325.94C379.849 1336.67 373.474 1346.69 365.866 1355.74C356.533 1366.85 345.819 1376.73 333.984 1385.12C312.233 1399.9 288.691 1411.86 263.924 1420.69C254.538 1424.42 246.828 1426.95 241.577 1428.74L235.431 1430.79C234.728 1431.04 234.006 1431.24 233.271 1431.38C233.903 1430.96 234.593 1430.64 235.319 1430.41L241.353 1428.03L263.701 1419.43C288.191 1410.28 311.519 1398.28 333.201 1383.67C344.782 1375.29 355.29 1365.52 364.488 1354.58C372.09 1345.68 378.501 1335.83 383.558 1325.27C386.983 1318.12 389.642 1310.63 391.491 1302.92C392.832 1297.63 393.316 1294.58 393.502 1294.58Z" fill="#263238"/>
<path d="M221.24 538.898C257.294 504.483 313.089 485.301 358.082 506.755C388.325 521.169 408.214 550.631 434.473 571.414C453.617 586.573 477.492 598.566 487.064 621.025C495.482 640.803 490.379 663.374 487.511 684.678C484.643 705.983 485.351 730.752 501.478 744.98C509.933 752.429 521.293 755.706 530.902 761.628C550.27 773.584 561.258 795.932 564.759 818.428C568.26 840.925 565.243 863.794 562.226 886.365L467.622 901.263L453.021 874.781L446.429 915.454L325.976 922.53L221.24 538.898Z" fill="#263238"/>
<path d="M204.331 577.262L203.251 603.334L183.138 995.234C181.015 1040.67 223.252 1080.9 271.895 1082.69C321.059 1084.62 342.289 1048.35 345.195 1002.46C348.249 954.338 352.346 903.721 352.346 903.721C352.346 903.721 414.956 897.129 432.685 817.013C441.512 777.123 443.449 711.049 443.3 656.856C443.266 645.314 440.9 633.898 436.343 623.293C431.787 612.689 425.135 603.114 416.786 595.145C408.437 587.175 398.564 580.975 387.76 576.916C376.955 572.857 365.441 571.024 353.91 571.526L204.331 577.262Z" fill="#FFBE9D"/>
<path d="M415.142 704.717C415.007 707.427 413.817 709.977 411.826 711.821C409.836 713.666 407.203 714.658 404.49 714.587C403.167 714.607 401.853 714.363 400.624 713.87C399.396 713.378 398.278 712.645 397.335 711.716C396.392 710.788 395.644 709.681 395.133 708.46C394.622 707.239 394.359 705.929 394.359 704.605C394.494 701.901 395.679 699.357 397.662 697.514C399.644 695.67 402.268 694.673 404.974 694.735C406.302 694.705 407.622 694.941 408.857 695.43C410.092 695.919 411.216 696.65 412.164 697.58C413.112 698.511 413.864 699.622 414.375 700.847C414.887 702.073 415.148 703.389 415.142 704.717Z" fill="#263238"/>
<path d="M427.061 690.452C425.683 691.718 418.159 685.423 407.023 684.79C395.886 684.157 387.32 689.223 386.202 687.77C385.643 687.137 387.096 684.79 390.821 682.407C395.847 679.335 401.705 677.903 407.581 678.309C413.391 678.641 418.946 680.806 423.448 684.492C426.726 687.36 427.806 689.856 427.061 690.452Z" fill="#263238"/>
<path d="M306.608 701.216C306.463 703.923 305.27 706.467 303.282 708.31C301.293 710.152 298.666 711.148 295.956 711.086C294.628 711.111 293.308 710.869 292.075 710.376C290.842 709.883 289.72 709.148 288.776 708.214C287.832 707.28 287.084 706.166 286.577 704.939C286.07 703.711 285.814 702.395 285.825 701.067C285.969 698.366 287.157 695.828 289.137 693.986C291.118 692.145 293.736 691.144 296.44 691.197C297.769 691.172 299.09 691.413 300.326 691.906C301.561 692.398 302.685 693.133 303.632 694.067C304.579 695 305.33 696.113 305.841 697.341C306.352 698.568 306.613 699.886 306.608 701.216Z" fill="#263238"/>
<path d="M317.148 685.908C315.808 687.211 308.284 680.917 297.11 680.246C285.936 679.576 277.407 684.716 276.29 683.263C275.731 682.63 277.184 680.283 280.908 677.9C285.938 674.837 291.793 673.406 297.669 673.803C303.482 674.117 309.042 676.283 313.536 679.986C316.813 682.816 317.819 685.349 317.148 685.908Z" fill="#263238"/>
<path d="M352.718 771.163C352.718 770.53 359.72 769.748 371.043 769.003C373.911 769.003 376.63 768.482 377.263 766.545C377.671 763.612 377.177 760.624 375.848 757.978L368.734 735.631C358.864 704.009 351.936 678.086 353.202 677.714C354.469 677.341 363.482 702.631 373.352 734.253C375.699 742.037 377.971 749.486 380.094 756.6C381.665 760.114 381.955 764.068 380.913 767.774C380.424 768.722 379.728 769.549 378.877 770.194C378.027 770.838 377.042 771.284 375.997 771.499C374.38 771.829 372.728 771.954 371.08 771.871C359.758 772.169 352.718 771.797 352.718 771.163Z" fill="#263238"/>
<path d="M352.495 903.908C314.358 902.192 277.444 889.931 245.86 868.487C245.86 868.487 268.803 925.659 350.148 922.94L352.495 903.908Z" fill="#EB996E"/>
<path d="M343.332 790.382C340.324 788.75 336.949 787.913 333.526 787.952C330.104 787.991 326.748 788.905 323.778 790.606C321.611 791.773 319.699 793.363 318.157 795.283C316.616 797.202 315.475 799.411 314.802 801.779C314.163 804.079 314.246 806.52 315.038 808.771C315.831 811.022 317.296 812.976 319.234 814.369C321.671 815.497 324.387 815.876 327.04 815.458C329.692 815.04 332.161 813.845 334.133 812.022C338.251 808.223 341.569 803.639 343.891 798.539C344.717 797.221 345.274 795.753 345.53 794.219C345.647 793.506 345.555 792.774 345.264 792.113C344.973 791.451 344.496 790.889 343.891 790.494" fill="#EB996E"/>
<path d="M313.2 654.36C312.791 657.564 301.542 658.532 289.065 662.852C276.588 667.173 266.978 672.946 264.669 670.637C263.663 669.519 264.669 666.354 268.394 662.554C273.172 657.765 279.018 654.178 285.452 652.088C291.843 649.855 298.677 649.191 305.379 650.152C310.481 650.971 313.349 652.796 313.2 654.36Z" fill="#263238"/>
<path d="M431.53 673.468C428.476 675.144 420.357 669.743 409.63 666.205C398.903 662.666 389.294 661.474 387.99 658.271C387.469 656.744 389.703 654.77 394.396 653.764C400.809 652.669 407.397 653.273 413.503 655.515C419.668 657.536 425.183 661.161 429.482 666.018C432.536 669.706 432.983 672.611 431.53 673.468Z" fill="#263238"/>
<path d="M263.924 531.449C277.929 551.636 284.409 566.982 292.082 602.216C295.807 619.498 281.467 631.156 267.276 641.175C265.751 642.256 263.98 642.936 262.123 643.155C260.267 643.373 258.386 643.123 256.652 642.426C254.918 641.73 253.386 640.609 252.197 639.167C251.008 637.725 250.199 636.008 249.845 634.173C249.845 634.173 252.75 687.882 232.675 711.347C223.214 722.334 222.358 736.785 224.146 749.039C226.13 761.571 231.781 773.235 240.385 782.561C262.136 806.919 267.127 845.879 250.665 874.223C245.933 881.203 241.569 888.426 237.591 895.862C235.567 900.304 234.538 905.135 234.574 910.016C234.724 912.873 233.772 915.678 231.915 917.853C230.058 920.029 227.437 921.41 224.593 921.711C157.613 929.204 89.9979 929.042 23.0553 921.227C20.7574 920.95 18.6023 919.966 16.8877 918.412C15.173 916.857 13.9833 914.808 13.4831 912.549C8.93909 890.201 18.5113 866.177 30.3927 846.065C43.6895 823.717 60.4129 802.152 65.5528 776.564C70.3947 752.503 64.6589 726.17 75.125 703.935C87.9375 676.671 120.826 664.64 137.884 639.797C154.012 616.37 153.788 584.897 168.314 560.464C186.937 529.065 230.887 515.769 263.887 531.412" fill="#263238"/>
<path d="M266.643 561.246C291.71 575.176 302.436 606.723 326.721 621.956C348.845 635.812 377.077 633.13 403 630.225C402.218 624.489 401.473 618.716 400.691 612.98C402.834 618.231 405.927 623.042 409.816 627.171C411.781 629.213 414.263 630.686 416.997 631.434C419.731 632.181 422.616 632.175 425.348 631.417C434.138 628.176 435.665 616.332 433.728 607.207C430.245 592.576 422.9 579.148 412.461 568.322C393.847 548.123 368.576 535.309 341.28 532.23C313.985 529.152 286.495 536.015 263.85 551.562" fill="#263238"/>
<path d="M173.417 619.796C178.405 607.55 179.999 594.185 178.033 581.109C176.067 568.033 170.612 555.729 162.243 545.491C154.227 536.3 143.691 529.661 131.94 526.398C120.189 523.134 107.739 523.388 96.1316 527.129C85.3222 530.432 75.8908 537.181 69.2773 546.347C57.1724 563.853 58.5505 590.26 69.9105 608.213C75.5251 616.686 82.993 623.771 91.7492 628.934C100.505 634.096 110.321 637.199 120.453 638.009C140.044 639.872 159.747 634.285 178.184 626.575" fill="#263238"/>
<path d="M137.884 623.856C138.182 623.558 142.652 627.581 150.957 632.572C155.827 635.507 160.951 638 166.265 640.021C179.34 644.915 193.306 646.972 207.236 646.055C212.886 645.702 218.494 644.854 223.997 643.522C233.383 641.213 238.895 638.605 238.895 638.978C237.758 639.827 236.503 640.504 235.17 640.989C233.678 641.741 232.134 642.388 230.552 642.926C228.491 643.719 226.39 644.403 224.257 644.974C218.695 646.531 212.994 647.542 207.236 647.991C193.058 649.084 178.817 646.931 165.595 641.697C160.23 639.586 155.079 636.967 150.213 633.875C148.323 632.75 146.507 631.506 144.775 630.151C143.46 629.17 142.216 628.1 141.05 626.947C139.872 626.051 138.808 625.013 137.884 623.856Z" fill="#455A64"/>
<path d="M241.055 673.877C239.623 674.474 238.121 674.887 236.586 675.106C233.68 675.739 229.472 676.559 224.183 677.304C210.401 679.492 196.334 679.113 182.691 676.186C168.914 673.022 156.553 665.434 147.494 654.584C144.823 651.275 142.64 647.6 141.013 643.671C140.354 642.266 139.903 640.773 139.672 639.239C142.088 644.359 145.088 649.183 148.611 653.615C157.711 663.873 169.778 671.046 183.138 674.138C196.602 677.005 210.455 677.572 224.108 675.814C229.36 675.255 233.606 674.659 236.548 674.287C238.028 673.968 239.542 673.83 241.055 673.877Z" fill="#455A64"/>
<path d="M88.8686 917.093C88.8686 917.093 88.6824 917.093 88.3844 916.534C87.9045 915.938 87.4569 915.316 87.0435 914.672C85.5629 912.133 84.5653 909.342 84.1011 906.44C83.4786 901.055 84.0392 895.598 85.744 890.451C87.4488 885.305 90.2566 880.593 93.9713 876.644C99.0296 871.268 104.838 866.652 111.216 862.937C117.995 858.766 125.63 855.004 133.079 850.311C141.02 845.654 147.887 839.371 153.229 831.874C155.876 827.874 157.676 823.374 158.518 818.652C159.312 813.708 159.211 808.662 158.22 803.754C155.881 794.091 152.754 784.636 148.872 775.484C145.225 766.749 143.205 757.421 142.912 747.959C142.977 731.859 148.373 716.234 158.258 703.525C164.725 694.904 173.151 687.945 182.84 683.226L187.421 681.215L191.146 680.097C192.099 679.749 193.085 679.5 194.088 679.352C193.175 679.807 192.228 680.193 191.257 680.507L187.868 681.811L183.399 683.971C174.011 688.919 165.882 695.952 159.636 704.531C150.033 717.019 144.798 732.317 144.737 748.071C145.094 757.284 147.113 766.356 150.697 774.851C154.682 784.063 157.884 793.594 160.269 803.344C161.298 808.461 161.399 813.722 160.567 818.875C159.756 823.984 157.837 828.853 154.943 833.141C149.401 840.754 142.304 847.102 134.122 851.763C126.673 856.494 118.889 860.181 112.147 864.278C105.775 867.924 99.976 872.493 94.9397 877.836C91.2971 881.615 88.5026 886.129 86.7428 891.074C84.9829 896.02 84.2982 901.284 84.7343 906.515C85.3756 910.286 86.7826 913.886 88.8686 917.093Z" fill="#455A64"/>
<path d="M196.584 922.084C195.76 921.705 194.985 921.23 194.274 920.668C192.28 919.068 190.632 917.079 189.432 914.821C187.472 911.192 186.352 907.17 186.155 903.051C185.922 897.603 186.705 892.159 188.464 886.998C192.189 875.191 202.431 864.65 210.327 851.354C214.594 844.473 216.947 836.579 217.143 828.485C216.985 819.786 214.992 811.219 211.296 803.344C204.107 786.807 192.673 773.547 184.963 759.654C181.134 753.168 178.143 746.222 176.061 738.983C174.312 732.607 173.856 725.946 174.72 719.392C175.66 709.787 180.165 700.884 187.347 694.437C189.353 692.805 191.586 691.475 193.976 690.489C194.794 690.106 195.658 689.831 196.546 689.669C190.669 692.18 185.631 696.32 182.028 701.599C178.425 706.878 176.406 713.077 176.21 719.466C175.462 725.814 175.994 732.248 177.774 738.387C179.871 745.491 182.862 752.3 186.676 758.649C190.401 765.39 195.28 772.169 200.047 779.283C205.136 786.589 209.549 794.344 213.233 802.45C216.974 810.638 218.954 819.52 219.043 828.522C218.788 836.961 216.28 845.178 211.78 852.322C203.586 865.917 193.157 876.197 189.656 887.482C187.868 892.448 187.01 897.7 187.123 902.976C187.203 906.959 188.156 910.875 189.917 914.448C191.589 917.426 193.859 920.025 196.584 922.084Z" fill="#455A64"/>
<path d="M366.313 623.186C366.313 623.186 365.792 623.186 364.823 622.478C363.44 621.687 362.12 620.79 360.875 619.796C356.384 616.04 352.6 611.512 349.701 606.425C345.511 598.884 342.008 590.981 339.235 582.811C337.522 578.267 335.697 573.574 333.388 568.881C330.993 564.071 328.137 559.506 324.858 555.249C313.253 540.179 297.24 529.101 279.046 523.553C271.46 521.447 263.69 520.075 255.842 519.456C257.972 519.248 260.118 519.248 262.248 519.456C268.064 519.798 273.83 520.734 279.456 522.249C287.814 524.564 295.784 528.104 303.107 532.753C316.924 541.304 328.061 553.564 335.25 568.136C337.559 572.941 339.384 577.708 341.06 582.252C343.717 590.373 347.043 598.259 351.005 605.829C353.722 610.873 357.259 615.429 361.471 619.312C364.488 621.882 366.425 622.999 366.313 623.186Z" fill="#455A64"/>
<path d="M422.852 624.564C422.11 624.559 421.371 624.459 420.655 624.266C418.587 623.879 416.565 623.28 414.621 622.478C407.43 619.548 400.98 615.058 395.737 609.33C387.998 600.874 381.547 591.323 376.593 580.986C370.596 569.626 364.86 556.627 355.698 545.193C347.022 534.498 335.349 526.639 322.177 522.622C311.354 519.381 300.167 517.516 288.879 517.072C279.232 516.551 271.373 516.7 265.935 516.737H259.566C258.836 516.826 258.099 516.826 257.369 516.737C258.076 516.56 258.8 516.461 259.529 516.439C260.944 516.439 263.254 516.141 265.786 516.029C271.187 515.731 279.046 515.359 288.804 515.694C300.255 515.937 311.625 517.677 322.624 520.871C336.261 524.887 348.363 532.938 357.337 543.964C366.76 555.733 372.458 568.881 378.306 580.204C383.153 590.433 389.423 599.926 396.929 608.399C401.975 614.093 408.152 618.673 415.068 621.845C419.872 623.968 422.889 624.564 422.852 624.564Z" fill="#455A64"/>
<path d="M509.933 890.723C509.709 890.723 511.088 887.855 512.615 882.603C514.781 875.201 515.848 867.521 515.78 859.808C515.771 848.393 513.227 837.121 508.331 826.809C505.34 820.755 501.584 815.11 497.158 810.011C492.614 804.647 487.399 799.545 482.259 794.181C477.01 789.024 472.166 783.471 467.771 777.57C463.764 771.983 460.333 766.005 457.528 759.729C452.829 749.113 449.958 737.78 449.036 726.208C448.45 718.382 448.826 710.514 450.153 702.78C450.563 700.061 451.122 697.975 451.457 696.56C451.599 695.829 451.824 695.117 452.127 694.437C452.351 694.437 451.606 697.454 450.973 702.892C449.995 710.552 449.882 718.298 450.638 725.984C451.141 731.288 452.063 736.543 453.394 741.702C454.866 747.625 456.886 753.398 459.428 758.947C462.212 765.082 465.606 770.921 469.558 776.378C473.923 782.167 478.716 787.621 483.898 792.691C489.112 798.055 494.364 803.232 498.796 808.707C511.069 822.876 517.698 841.066 517.419 859.808C517.41 867.643 516.153 875.425 513.695 882.864C513.009 884.873 512.201 886.838 511.274 888.748C510.919 889.464 510.468 890.128 509.933 890.723Z" fill="#455A64"/>
<path d="M67.9365 601.918C67.915 600.177 68.1663 598.442 68.6814 596.778C69.8052 592.187 71.5073 587.756 73.7468 583.593C77.1462 576.987 81.8812 571.158 87.6517 566.478C93.4221 561.797 100.102 558.367 107.268 556.404C116.528 554.564 126.122 555.449 134.888 558.953C143.655 562.457 151.216 568.428 156.656 576.144C157.707 577.474 158.548 578.956 159.152 580.539C155.359 575.933 151.116 571.716 146.488 567.95C141.055 563.776 134.784 560.827 128.104 559.303C121.425 557.779 114.495 557.718 107.79 559.123C100.936 561.001 94.5256 564.224 88.9304 568.604C83.3352 572.984 78.6676 578.434 75.1994 584.636C72.2456 590.158 69.814 595.944 67.9365 601.918Z" fill="#455A64"/>
<path d="M112.818 625.644C112.869 621.616 113.432 617.611 114.494 613.725C116.179 604.147 120.31 595.166 126.487 587.653C129.574 584.208 133.625 581.77 138.114 580.654C142.603 579.539 147.324 579.797 151.665 581.396C154.305 582.508 156.568 584.357 158.183 586.722C159.3 588.472 159.636 589.59 159.524 589.664C157.265 586.868 154.365 584.657 151.069 583.221C147.035 582.024 142.745 581.99 138.693 583.123C134.641 584.257 130.991 586.511 128.163 589.627C122.327 596.817 118.224 605.254 116.17 614.284C115.346 618.151 114.226 621.949 112.818 625.644Z" fill="#455A64"/>
<path d="M175.093 550.072C175.726 550.593 167.644 561.916 161.796 578.453C155.948 594.99 155.166 609.442 154.347 609.367C153.527 609.293 153.49 594.469 159.487 577.448C165.483 560.426 174.72 549.737 175.093 550.072Z" fill="#FF725E"/>
<path d="M0.0744934 813.437C2.23511 816.104 5.02556 818.19 8.19409 819.508C11.9247 821.007 15.9685 821.557 19.9638 821.11C25.2635 820.602 30.2807 818.483 34.3407 815.039C43.5032 807.59 48.5313 792.952 48.1216 777.421C48.1216 769.599 47.0415 761.405 46.2593 752.876C45.2014 744.032 45.3517 735.085 46.7063 726.282C47.4793 721.811 48.8839 717.471 50.8778 713.395C52.908 709.504 55.4925 705.928 58.5505 702.78C64.4894 696.984 71.3489 692.214 78.8495 688.664C85.9262 684.939 92.8167 682.22 99.2229 679.39C105.149 676.801 110.844 673.711 116.244 670.153C124.249 665.251 130.766 658.259 135.091 649.928C136.46 646.789 137.46 643.502 138.07 640.132C138.07 640.132 138.07 641.026 137.735 642.777C137.304 645.344 136.554 647.846 135.5 650.226C131.296 658.766 124.779 665.954 116.691 670.972C111.272 674.595 105.552 677.747 99.5954 680.395C93.2264 683.263 86.3359 686.168 79.3337 689.707C71.9654 693.249 65.2227 697.966 59.3699 703.674C56.3855 706.777 53.8754 710.304 51.9207 714.14C49.9798 718.127 48.601 722.364 47.8237 726.729C44.7323 744.607 49.2763 761.852 49.2018 777.644C49.1273 793.436 44.3598 808.186 34.8621 815.896C30.647 819.417 25.4399 821.539 19.9638 821.967C15.8761 822.38 11.7505 821.752 7.97062 820.142C4.70217 818.867 1.91491 816.601 0 813.661L0.0744934 813.437Z" fill="#263238"/>
<path d="M472.501 550.78C472.846 551.502 473.097 552.265 473.246 553.052C473.719 555.334 473.565 557.703 472.799 559.905C471.33 563.95 468.555 567.391 464.913 569.685C461.271 571.978 456.969 572.992 452.686 572.568C446.792 571.865 441.235 569.443 436.708 565.604C431.571 561.263 427.235 556.057 423.895 550.221C420.17 544.224 416.818 537.595 412.386 531.598C407.869 525.174 402.549 519.354 396.557 514.279C382.76 502.605 365.912 495.122 348 492.713C330.089 490.304 311.862 493.07 295.471 500.684C292.79 501.95 290.704 502.993 289.363 503.775C288.022 504.558 287.24 504.856 287.24 504.856C289.793 503.133 292.469 501.602 295.248 500.274C302.85 496.578 310.919 493.934 319.234 492.415C333.009 489.796 347.198 490.321 360.741 493.952C374.285 497.583 386.833 504.226 397.45 513.385C403.525 518.515 408.908 524.412 413.466 530.928C417.936 537.259 421.251 543.889 424.938 549.849C428.211 555.591 432.444 560.731 437.452 565.045C441.831 568.787 447.2 571.181 452.91 571.935C457.635 572.475 462.383 571.138 466.132 568.211C469.028 566.068 471.24 563.131 472.501 559.756C473.298 557.629 473.529 555.332 473.171 553.089C472.724 551.562 472.501 550.78 472.501 550.78Z" fill="#263238"/>
<path d="M236.548 893.442L237.256 893.106L239.379 892.138C241.279 891.244 244.035 889.94 247.424 888.004C257.222 882.657 265.472 874.869 271.373 865.395C275.262 858.837 277.523 851.442 277.966 843.83C278.198 839.601 277.745 835.363 276.625 831.278C275.295 827.011 273.377 822.949 270.926 819.211C265.14 811.442 258.423 804.412 250.925 798.278C247.201 794.889 243.215 791.537 239.491 787.85C235.598 784.176 232.16 780.05 229.248 775.558C227.809 773.27 226.563 770.865 225.524 768.37C224.638 765.837 224.039 763.214 223.736 760.548C223.079 755.333 223.666 750.036 225.449 745.091C229.217 736.062 234.124 727.55 240.049 719.764C245.182 712.659 249.248 704.842 252.117 696.56C254.515 689.33 255.955 681.817 256.4 674.212C257.06 663.137 255.541 652.039 251.931 641.548C250.986 638.688 249.866 635.89 248.579 633.168C247.685 631.305 247.275 630.262 247.275 630.262C247.275 630.262 247.834 631.231 248.765 633.056C250.2 635.746 251.445 638.534 252.49 641.399C256.278 651.917 257.924 663.086 257.332 674.25C256.811 681.955 255.271 689.558 252.75 696.858C249.865 705.232 245.788 713.148 240.645 720.36C234.803 728.088 229.96 736.523 226.231 745.464C224.521 750.232 223.96 755.336 224.592 760.362C224.891 762.904 225.479 765.403 226.343 767.811C227.366 770.243 228.613 772.575 230.068 774.776C232.912 779.207 236.289 783.273 240.124 786.881C243.849 790.606 247.573 793.883 251.298 797.273C258.873 803.468 265.643 810.587 271.448 818.466C273.954 822.303 275.898 826.48 277.221 830.868C278.357 835.052 278.81 839.391 278.562 843.718C278.044 851.482 275.696 859.012 271.708 865.693C265.738 875.198 257.377 882.968 247.461 888.227C243.992 890.297 240.339 892.043 236.548 893.442Z" fill="#263238"/>
<path d="M534.925 745.65L535.484 745.836C536.05 746.025 536.588 746.288 537.085 746.618C538.981 747.938 540.383 749.851 541.07 752.056C541.664 753.792 541.864 755.638 541.658 757.46C541.452 759.283 540.844 761.037 539.879 762.597C538.476 764.581 536.609 766.192 534.44 767.289C532.272 768.386 529.868 768.936 527.438 768.891C524.511 768.892 521.615 768.291 518.931 767.124C516.246 765.958 513.83 764.252 511.832 762.113C507.227 757.289 503.754 751.5 501.664 745.166C496.785 731.944 496.636 716.226 498.163 700.471C499.69 684.716 501.888 669.408 501.143 655.59C500.837 649.068 499.66 642.617 497.642 636.408C495.815 631.062 493.164 626.035 489.783 621.51C485.031 614.744 478.364 609.555 470.639 606.611C467.766 605.665 464.81 604.992 461.811 604.6C461.811 604.6 462.631 604.6 464.158 604.6C465.124 604.649 466.084 604.787 467.026 605.01C468.298 605.236 469.545 605.585 470.75 606.053C478.681 608.88 485.547 614.082 490.416 620.951C493.892 625.56 496.62 630.688 498.498 636.147C500.607 642.431 501.86 648.971 502.223 655.59C503.154 669.557 500.882 684.753 499.318 700.657C497.753 716.561 497.94 732.018 502.67 745.054C504.689 751.235 508.046 756.894 512.503 761.628C514.397 763.701 516.696 765.363 519.259 766.51C521.822 767.657 524.594 768.265 527.401 768.295C529.754 768.369 532.089 767.868 534.205 766.836C536.32 765.804 538.153 764.273 539.543 762.373C540.475 760.898 541.071 759.236 541.29 757.505C541.509 755.773 541.345 754.015 540.81 752.354C540.189 750.197 538.881 748.301 537.085 746.954C535.819 745.948 534.888 745.762 534.925 745.65Z" fill="#263238"/>
<path d="M183.212 960.372C183.212 960.372 213.642 1022.09 278.04 1019.37C342.438 1016.65 349.143 959.776 349.143 959.776L385.197 999.443L349.143 1088.2L296.142 1111.11L209.806 1088.2L186.713 1051.62L129.578 984.023L183.212 960.372Z" fill="#FF725E"/>
<path d="M397.562 1026.82H394.285C391.24 1027.09 388.231 1027.67 385.308 1028.57C380.716 1030.12 376.317 1032.2 372.198 1034.75C367.356 1037.69 362.141 1041.53 356.368 1045.93C350.183 1050.73 343.591 1054.98 336.665 1058.63C332.709 1060.52 328.596 1062.06 324.374 1063.25C319.894 1064.45 315.322 1065.29 310.705 1065.74C291.672 1067.71 270.703 1063.51 250.106 1056.35C229.509 1049.2 210.216 1041.05 191.816 1036.73C183.122 1034.67 174.183 1033.84 165.26 1034.27C157.489 1034.53 149.747 1035.36 142.093 1036.73C130.956 1038.61 120.113 1041.94 109.838 1046.63C108.013 1047.45 106.486 1048.35 105.145 1049.09C103.996 1049.69 102.888 1050.36 101.83 1051.1L99.1112 1052.85C102.342 1050.23 105.882 1048.02 109.652 1046.26C119.893 1041.36 130.758 1037.89 141.944 1035.94C149.63 1034.51 157.41 1033.62 165.223 1033.3C174.229 1032.83 183.257 1033.63 192.04 1035.68C210.663 1040 229.844 1048.2 250.478 1055.24C271.113 1062.28 291.784 1066.41 310.593 1064.7C315.154 1064.23 319.674 1063.42 324.113 1062.28C328.279 1061.13 332.33 1059.61 336.218 1057.73C343.143 1054.19 349.726 1050.01 355.884 1045.26C361.694 1041.05 367.058 1037.25 371.863 1034.34C376.048 1031.82 380.509 1029.78 385.159 1028.27C388.135 1027.44 391.197 1026.95 394.285 1026.82C396.482 1026.82 397.562 1026.82 397.562 1026.82Z" fill="#FAFAFA"/>
<path d="M405.235 813.4L429.743 862.937L431.977 889.754C431.977 889.754 434.212 881.672 436.968 874.074C439.725 866.475 441.475 842.713 441.475 842.713L423.597 805.653C423.597 805.653 413.056 785.205 425.795 775.67L444.715 800.662C444.715 800.662 429.817 771.946 443.859 764.124L459.837 782.076C459.261 781.161 458.891 780.131 458.753 779.058C458.615 777.985 458.713 776.895 459.039 775.863C459.365 774.832 459.912 773.884 460.642 773.085C461.371 772.286 462.266 771.656 463.264 771.238L503.601 822.972L498.573 899.14L484.755 978.399L491.347 990.243L419.723 1039.85C419.723 1039.85 397.376 990.877 395.812 974.675C394.247 958.473 410.226 872.621 410.226 872.621C410.226 872.621 394.992 842.117 396.966 829.9C398.94 817.683 405.235 813.4 405.235 813.4Z" fill="#FFBE9D"/>
<path d="M425.497 1051.74L425.05 1051.03L423.932 1048.76L419.723 1039.85C415.999 1032 410.859 1020.41 404.825 1005.33C401.355 996.999 398.395 988.466 395.961 979.777C394.825 974.68 394.586 969.425 395.253 964.246C395.7 958.957 396.296 953.445 397.041 947.783C399.983 925.138 404.192 899.661 409.183 871.727V872.546C404.506 863.246 400.631 853.565 397.599 843.607C396.829 840.967 396.231 838.279 395.812 835.561C395.611 834.13 395.524 832.686 395.551 831.241V829.043L395.961 826.92C396.539 824.088 397.491 821.345 398.791 818.764C400.101 816.005 401.994 813.565 404.341 811.612L405.607 810.607L406.389 812.134C414.174 827.852 422.442 844.389 430.934 861.484V861.745V862.006C431.679 870.424 432.424 879.586 433.206 888.86L430.301 888.562C431.456 884.838 432.648 881.113 434.026 877.389L435.814 871.764C436.366 869.894 436.801 867.991 437.117 866.066C438.458 858.207 439.24 850.013 439.873 841.819V842.601L429.184 820.253C427.359 816.529 425.459 812.804 423.671 808.819C422.778 806.919 421.735 805.094 420.915 802.897C420.07 800.851 419.373 798.748 418.83 796.602C417.742 792.585 417.526 788.382 418.196 784.274C418.896 779.998 421.217 776.155 424.677 773.547L425.906 772.653L426.8 773.845L445.721 798.874L443.151 800.476C440.028 794.36 437.808 787.823 436.559 781.071C435.888 777.614 435.888 774.061 436.559 770.605C436.939 768.792 437.7 767.081 438.792 765.585C439.883 764.089 441.28 762.842 442.89 761.926L443.97 761.33L444.753 762.262L460.955 781.741L458.534 783.343C457.418 781.029 457.054 778.425 457.491 775.894C457.768 774.585 458.343 773.357 459.169 772.304C459.996 771.252 461.052 770.403 462.258 769.822L463.338 769.264L464.083 770.195L504.421 821.334L504.756 821.78V822.265C502.893 849.752 501.031 875.228 499.579 898.544C494.141 929.011 489.41 955.568 485.425 977.729V977.17L511.87 1026.11L518.797 1039.15L520.548 1042.54C520.747 1042.92 520.921 1043.32 521.069 1043.73C520.776 1043.4 520.526 1043.04 520.324 1042.65L518.388 1039.37L510.939 1026.56C504.607 1015.38 495.407 998.773 483.749 978.138V977.878V977.58C487.474 955.232 492.055 928.825 497.269 898.283C498.722 874.967 500.361 849.454 502.074 822.004L502.372 822.935L461.848 771.871L463.674 772.281C462.852 772.671 462.131 773.242 461.563 773.952C460.995 774.662 460.596 775.491 460.396 776.378C460.096 778.292 460.381 780.253 461.215 782.002L465.648 791.835L458.794 783.603L442.704 764.31L444.604 764.645C443.352 765.36 442.269 766.335 441.427 767.504C440.585 768.674 440.005 770.011 439.724 771.424C439.165 774.49 439.165 777.632 439.724 780.698C440.925 787.179 443.058 793.452 446.056 799.321L443.524 800.96L424.603 775.968L426.726 776.266C423.875 778.409 421.966 781.573 421.399 785.093C420.811 788.82 421.027 792.63 422.033 796.267C422.526 798.275 423.174 800.243 423.969 802.152C424.714 804.051 425.72 805.876 426.614 807.888L432.126 819.322L442.853 841.67L443.039 842.042V842.452C442.369 850.758 441.587 858.952 440.171 866.997C439.849 869.034 439.401 871.049 438.831 873.031C438.197 874.967 437.601 876.755 437.006 878.729L433.467 889.903L431.158 897.129L430.562 889.68C429.78 880.405 429.035 871.28 428.327 862.863V863.384C419.872 846.288 411.678 829.863 403.894 813.996L405.905 814.518C403.95 816.197 402.364 818.265 401.249 820.589C400.045 822.945 399.156 825.449 398.605 828.038C397.784 833.2 398.258 838.486 399.983 843.42C402.906 853.225 406.643 862.769 411.157 871.951V872.323V872.733C406.054 900.555 401.659 926.032 398.568 948.565C397.786 954.189 397.152 959.739 396.668 964.954C395.978 969.912 396.154 974.953 397.19 979.852C399.497 988.497 402.333 996.993 405.682 1005.29C411.567 1020.41 416.595 1032.07 419.984 1040.04C421.697 1043.95 422.964 1047.01 423.709 1049.09L424.677 1051.4C425.459 1051.48 425.534 1051.74 425.497 1051.74Z" fill="#EB996E"/>
<path d="M463.748 882.23C463.211 877.864 463.211 873.449 463.748 869.083C464.158 860.963 464.977 849.789 466.094 837.461L466.392 834.072L466.653 835.077C460.172 825.431 454.511 816.752 450.563 810.42C448.187 807.161 446.223 803.621 444.715 799.88C447.572 802.693 450.073 805.845 452.165 809.266C456.56 815.3 462.482 823.754 469 833.364L469.335 833.811V834.332C469.335 835.412 469.149 836.567 469.037 837.722C467.957 850.05 466.802 861.224 465.834 869.269C465.631 873.654 464.931 878.003 463.748 882.23Z" fill="#EB996E"/>
<path d="M484.867 861.075C484.408 857.078 484.408 853.041 484.867 849.044C485.276 841.595 486.021 831.278 487.027 819.695L487.362 820.775L485.09 817.87C477.641 807.962 470.788 798.912 466.057 792.282C463.233 788.85 460.821 785.1 458.869 781.108C462.218 784.019 465.206 787.32 467.771 790.941C472.948 797.235 479.95 806.063 487.548 815.97C488.293 816.939 489.038 817.944 489.783 818.875L490.118 819.36V819.955C489.038 831.502 487.921 841.782 486.99 849.193C486.789 853.228 486.075 857.221 484.867 861.075Z" fill="#EB996E"/>
<path d="M400.393 1023.28L500.249 981.118C500.249 981.118 645.508 1306.68 653.851 1327.73C673.889 1377.3 654.074 1450.86 599.546 1449.52C573.847 1448.93 500.249 1438.94 480.173 1360.77C473.879 1336.26 456.038 1277.52 456.038 1277.52L400.393 1023.28Z" fill="#FF725E"/>
<path d="M500.249 981.118C499.702 981.502 499.115 981.827 498.498 982.087L493.247 984.619L473.246 994.08L401.51 1027.6L401.957 1026.71C407.879 1060 415.254 1099.6 424.305 1141.69C437.266 1202.81 451.42 1257.59 462.295 1297.04C467.845 1316.67 472.352 1332.57 475.481 1343.71C477.045 1349.11 478.237 1353.35 479.205 1356.37L480.099 1359.69C480.244 1360.05 480.332 1360.44 480.36 1360.84C480.173 1360.5 480.023 1360.13 479.913 1359.76C479.652 1358.9 479.28 1357.86 478.833 1356.48L474.885 1343.93C471.495 1332.98 466.728 1317.11 461.104 1297.41C449.93 1258.04 435.516 1203.25 422.517 1142.09C413.541 1099.97 406.278 1060.34 400.505 1026.97V1026.33L401.101 1026.07L473.134 993.298L493.359 984.247L498.685 981.9L500.249 981.118Z" fill="#263238"/>
<path d="M637.686 1306.91C637.433 1307.43 637.134 1307.93 636.792 1308.4L634.036 1312.61C632.622 1314.84 631.067 1316.98 629.38 1319.01C627.444 1321.43 625.395 1324.34 622.713 1327.13L618.579 1331.68C617.126 1333.24 615.488 1334.73 613.849 1336.33C610.608 1339.61 606.809 1342.66 602.861 1346.02C594.025 1352.91 584.575 1358.98 574.629 1364.15C564.604 1369.16 554.129 1373.22 543.342 1376.26C538.351 1377.49 533.621 1378.79 529.077 1379.46C526.805 1379.84 524.645 1380.32 522.522 1380.58L516.414 1381.21C512.689 1381.73 508.965 1381.7 505.91 1381.85C503.269 1382.02 500.619 1382.02 497.977 1381.85L492.949 1381.62C492.378 1381.66 491.806 1381.66 491.235 1381.62C491.818 1381.57 492.404 1381.57 492.986 1381.62H497.977C500.62 1381.76 503.268 1381.76 505.91 1381.62C508.965 1381.4 512.503 1381.4 516.339 1380.8L522.373 1380.1C524.496 1379.8 526.656 1379.31 528.891 1378.94C533.398 1378.23 538.091 1376.89 543.082 1375.66C564.565 1369.6 584.648 1359.37 602.191 1345.57C606.102 1342.29 609.938 1339.27 613.365 1336.03C615.003 1334.47 616.68 1333.02 618.132 1331.45C619.585 1329.89 620.963 1328.44 622.266 1326.98C624.985 1324.23 627.108 1321.4 629.082 1319.05C630.776 1317.03 632.368 1314.93 633.85 1312.76L636.792 1308.7L637.686 1306.91Z" fill="#FAFAFA"/>
<path d="M610.31 1218.67C610.103 1219.21 609.841 1219.72 609.528 1220.2C608.97 1221.17 608.225 1222.69 606.996 1224.48C603.682 1229.62 599.782 1234.36 595.375 1238.6C588.885 1244.97 581.431 1250.27 573.288 1254.32C563.322 1259.35 552.464 1262.37 541.331 1263.22C530.248 1263.52 519.157 1263.03 508.145 1261.73C499.196 1260.77 490.156 1261.07 481.291 1262.62C475.318 1263.69 469.603 1265.89 464.456 1269.1C460.731 1271.41 459.204 1273.16 459.092 1273.05C460.627 1271.4 462.353 1269.94 464.232 1268.69C469.352 1265.29 475.102 1262.95 481.142 1261.8C490.067 1260.13 499.185 1259.74 508.22 1260.65C519.186 1261.88 530.225 1262.35 541.257 1262.06C552.239 1261.24 562.954 1258.28 572.804 1253.35C580.895 1249.41 588.321 1244.23 594.816 1238C599.216 1233.84 603.161 1229.22 606.586 1224.22C607.852 1222.51 608.634 1221.02 609.305 1220.09C609.609 1219.59 609.945 1219.12 610.31 1218.67Z" fill="#FAFAFA"/>
<path d="M433.989 1179.94C433.989 1179.94 436 1179.94 439.576 1179.94C444.632 1179.82 449.647 1178.99 454.474 1177.48C461.603 1175.2 468.374 1171.93 474.587 1167.76C482.179 1162.56 489.409 1156.84 496.226 1150.66C503.062 1144.45 510.25 1138.65 517.755 1133.27C523.975 1128.92 530.753 1125.42 537.905 1122.88C542.702 1121.18 547.721 1120.19 552.803 1119.93C554.668 1119.84 556.538 1119.92 558.39 1120.16C558.39 1120.16 556.378 1120.16 552.803 1120.38C547.712 1120.8 542.701 1121.9 537.905 1123.66C530.881 1126.28 524.232 1129.81 518.127 1134.16C510.681 1139.57 503.532 1145.38 496.711 1151.56C489.865 1157.77 482.583 1163.48 474.922 1168.65C468.597 1172.84 461.697 1176.09 454.437 1178.3C449.528 1179.74 444.431 1180.44 439.315 1180.38C437.529 1180.4 435.746 1180.25 433.989 1179.94Z" fill="#FAFAFA"/>
<path d="M508.294 1029.31C508.243 1029.67 508.143 1030.02 507.996 1030.36C507.635 1031.35 507.2 1032.3 506.693 1033.23C504.771 1036.63 502.247 1039.66 499.243 1042.16C494.83 1045.88 489.783 1048.77 484.345 1050.69C477.702 1052.93 470.81 1054.34 463.823 1054.9C456.373 1055.68 449.408 1055.98 443.077 1056.69C437.45 1057.23 431.88 1058.25 426.428 1059.74C422.781 1060.8 419.25 1062.23 415.887 1063.99C413.503 1065.26 412.163 1066.11 412.163 1066C412.418 1065.74 412.706 1065.52 413.019 1065.33C413.855 1064.7 414.725 1064.11 415.626 1063.58C418.949 1061.64 422.486 1060.09 426.167 1058.96C431.64 1057.34 437.25 1056.21 442.928 1055.61C449.297 1054.87 456.336 1054.49 463.674 1053.75C470.563 1053.19 477.364 1051.83 483.935 1049.69C489.254 1047.85 494.209 1045.09 498.573 1041.53C502.675 1038.23 505.995 1034.05 508.294 1029.31Z" fill="#FAFAFA"/>
<path d="M1396.2 1356.67C1404.8 1366.95 1419.36 1361.99 1425.66 1354.69C1431.95 1347.39 1434 1337.49 1435.83 1328.03C1440.04 1306.42 1444.17 1283.78 1437.73 1262.73C1436.07 1256.33 1432.68 1250.5 1427.93 1245.9C1425.52 1243.64 1422.56 1242.05 1419.35 1241.29C1416.13 1240.53 1412.77 1240.63 1409.61 1241.58C1402.16 1244.22 1398.43 1251.97 1395.53 1259.27C1387.47 1280.79 1384.29 1303.83 1386.22 1326.72C1387.15 1337.37 1389.38 1348.44 1396.2 1356.52" fill="#FF725E"/>
<g opacity="0.2">
<path opacity="0.2" d="M1396.2 1356.67C1404.8 1366.95 1419.36 1361.99 1425.66 1354.69C1431.95 1347.39 1434 1337.49 1435.83 1328.03C1440.04 1306.42 1444.17 1283.78 1437.73 1262.73C1436.07 1256.33 1432.68 1250.5 1427.93 1245.9C1425.52 1243.64 1422.56 1242.05 1419.35 1241.29C1416.13 1240.53 1412.77 1240.63 1409.61 1241.58C1402.16 1244.22 1398.43 1251.97 1395.53 1259.27C1387.47 1280.79 1384.29 1303.83 1386.22 1326.72C1387.15 1337.37 1389.38 1348.44 1396.2 1356.52" fill="black"/>
</g>
<path d="M1429.91 1409.48C1442.21 1402.28 1456.52 1399.24 1470.69 1400.8C1478.34 1400.79 1485.78 1403.35 1491.81 1408.07C1497.4 1413.21 1499.26 1422.97 1493.86 1428.33C1490.3 1431.19 1485.87 1432.75 1481.3 1432.72C1470.43 1433.54 1458.18 1432.72 1450.09 1440.17C1445.47 1444.34 1442.64 1450.83 1436.94 1453.21C1434.04 1454.16 1430.91 1454.13 1428.02 1453.15C1425.13 1452.16 1422.64 1450.26 1420.93 1447.73C1417.61 1442.53 1416.42 1436.25 1417.61 1430.19C1417.92 1426.02 1419.18 1421.98 1421.32 1418.39C1423.45 1414.79 1426.39 1411.74 1429.91 1409.48Z" fill="#FF725E"/>
<path d="M1376.68 1374.25C1380.17 1368.75 1382.26 1362.48 1382.78 1355.99C1383.29 1349.5 1382.21 1342.98 1379.62 1337C1374.32 1325.1 1365.84 1314.88 1355.12 1307.47C1342.86 1298.38 1328.94 1291.79 1314.15 1288.06C1308.42 1286.32 1302.38 1285.83 1296.45 1286.65C1293.49 1287.08 1290.68 1288.23 1288.26 1290C1285.84 1291.78 1283.9 1294.12 1282.6 1296.81C1279.21 1304.97 1283.94 1314.06 1288.89 1321.4C1297.56 1334.32 1307.23 1346.54 1317.83 1357.93C1326.36 1367.1 1335.97 1376.04 1348 1379.46C1360.03 1382.89 1372.1 1381.25 1377.58 1372.65" fill="#FF725E"/>
<path d="M1410.5 1521.59C1410.77 1519.93 1410.86 1518.24 1410.76 1516.56C1410.76 1512.84 1410.76 1508.33 1410.76 1502.9C1410.83 1496.16 1411.25 1489.43 1412.03 1482.75C1413.09 1474.59 1414.81 1466.53 1417.17 1458.65C1419.45 1450.76 1422.84 1443.24 1427.22 1436.3C1430.82 1430.67 1435.61 1425.9 1441.27 1422.33C1445.11 1420 1449.29 1418.28 1453.67 1417.23C1455.33 1417.02 1456.97 1416.64 1458.55 1416.08C1456.86 1416.02 1455.18 1416.14 1453.52 1416.45C1448.94 1417.22 1444.54 1418.79 1440.52 1421.1C1434.54 1424.6 1429.44 1429.43 1425.62 1435.22C1421.03 1442.26 1417.51 1449.94 1415.16 1458.01C1412.77 1466.01 1411.07 1474.2 1410.09 1482.48C1409.41 1489.25 1409.13 1496.06 1409.27 1502.86C1409.27 1508.63 1409.61 1513.32 1409.79 1516.53C1409.87 1518.23 1410.1 1519.93 1410.5 1521.59Z" fill="#263238"/>
<path d="M1410.5 1511.01C1410.61 1510.24 1410.61 1509.45 1410.5 1508.67C1410.5 1506.95 1410.17 1504.76 1409.9 1502.11C1409.38 1496.38 1408.64 1488.11 1408.04 1477.87C1406.7 1457.38 1405.96 1429 1406.59 1397.68C1407.22 1366.35 1409.27 1338.08 1411.62 1317.67C1412.18 1312.57 1412.74 1307.95 1413.33 1303.93C1413.93 1299.91 1414.3 1296.48 1414.78 1293.57C1415.27 1290.67 1415.49 1288.73 1415.75 1287.02C1415.84 1286.25 1415.84 1285.48 1415.75 1284.71C1415.48 1285.43 1415.28 1286.18 1415.16 1286.94C1414.78 1288.66 1414.34 1290.82 1413.82 1293.42C1413.18 1296.26 1412.62 1299.72 1411.99 1303.74C1411.36 1307.76 1410.61 1312.38 1410.02 1317.49C1406.67 1344.08 1404.78 1370.84 1404.35 1397.64C1403.72 1429.04 1404.69 1457.46 1406.4 1477.98C1407.19 1488.22 1408.15 1496.6 1408.94 1502.19C1409.35 1504.83 1409.64 1507.03 1409.9 1508.74C1410.02 1509.52 1410.22 1510.28 1410.5 1511.01Z" fill="#263238"/>
<path d="M1405.77 1456.49C1405.73 1454.18 1405.5 1451.87 1405.1 1449.6C1404.47 1445.2 1403.27 1438.87 1401.38 1431.16C1399.05 1422.13 1396.22 1413.24 1392.88 1404.53C1388.89 1393.82 1384.13 1383.42 1378.66 1373.39C1369.06 1354.89 1356.18 1338.29 1340.63 1324.41C1337.94 1322.03 1335.11 1319.83 1332.14 1317.82C1330.83 1316.93 1329.68 1316 1328.41 1315.29L1325.43 1313.61C1323.48 1312.38 1321.44 1311.31 1319.32 1310.41C1326.47 1315.06 1333.32 1320.15 1339.85 1325.64C1354.93 1339.71 1367.53 1356.23 1377.09 1374.51C1382.52 1384.46 1387.29 1394.76 1391.36 1405.35C1394.76 1413.97 1397.72 1422.76 1400.22 1431.68C1402.34 1439.13 1403.72 1445.57 1404.62 1449.89C1404.84 1452.12 1405.22 1454.32 1405.77 1456.49Z" fill="#263238"/>
</svg>
