<svg width="42" height="42" viewBox="0 0 42 42" fill="none" xmlns="http://www.w3.org/2000/svg">
<path d="M6 24L22.5 24.0015C23.2566 24.0016 23.9852 24.2877 24.5399 24.8023C25.0945 25.3169 25.4343 26.022 25.491 26.7765L25.5 27.0015V30.75C25.4985 37.05 19.0695 39 14.25 39C9.5265 39 3.2565 37.128 3.0075 31.122L3 30.75V27C3 25.419 4.224 24.123 5.775 24.009L6 24ZM25.83 24.0015L36 24C37.581 24 38.877 25.224 38.991 26.775L39 27V30C38.9985 35.6385 33.855 37.5 30 37.5C28.413 37.5 26.6115 37.1775 25.0365 36.4125C26.1645 35.0715 26.8965 33.3645 26.9895 31.2165L27 30.75V27.0015C27 25.9485 26.6265 24.9915 26.019 24.2265L25.83 24H36L25.83 24.0015ZM14.25 4.5C15.3335 4.5001 16.4064 4.71361 17.4074 5.12834C18.4084 5.54307 19.3179 6.1509 20.0839 6.91712C20.85 7.68334 21.4577 8.59295 21.8722 9.59402C22.2868 10.5951 22.5001 11.668 22.5 12.7515C22.4999 13.835 22.2864 14.9079 21.8717 15.9089C21.4569 16.9099 20.8491 17.8194 20.0829 18.5854C19.3167 19.3515 18.407 19.9592 17.406 20.3737C16.4049 20.7883 15.332 21.0016 14.2485 21.0015C12.0603 21.0013 9.96173 20.1318 8.41456 18.5844C6.86738 17.0369 5.9983 14.9382 5.9985 12.75C5.9987 10.5618 6.86816 8.46323 8.41562 6.91606C9.96308 5.36888 12.0618 4.4998 14.25 4.5ZM30.75 7.5C31.6364 7.5 32.5142 7.67459 33.3331 8.01381C34.1521 8.35303 34.8962 8.85023 35.523 9.47703C36.1498 10.1038 36.647 10.8479 36.9862 11.6669C37.3254 12.4858 37.5 13.3636 37.5 14.25C37.5 15.1364 37.3254 16.0142 36.9862 16.8331C36.647 17.6521 36.1498 18.3962 35.523 19.023C34.8962 19.6498 34.1521 20.147 33.3331 20.4862C32.5142 20.8254 31.6364 21 30.75 21C28.9598 21 27.2429 20.2888 25.977 19.023C24.7112 17.7571 24 16.0402 24 14.25C24 12.4598 24.7112 10.7429 25.977 9.47703C27.2429 8.21116 28.9598 7.5 30.75 7.5Z" fill="#8C86FE"/>
</svg>
