<svg width="29" height="28" viewBox="0 0 29 28" fill="none" xmlns="http://www.w3.org/2000/svg">
<g clip-path="url(#clip0)">
<path d="M25.2084 24.5L19.8696 19.257L25.2084 24.5ZM22.8282 12.25C22.8282 14.8801 21.7624 17.4024 19.8653 19.2621C17.9682 21.1219 15.3951 22.1667 12.7122 22.1667C10.0293 22.1667 7.45622 21.1219 5.5591 19.2621C3.66198 17.4024 2.59619 14.8801 2.59619 12.25C2.59619 9.61994 3.66198 7.0976 5.5591 5.23786C7.45622 3.37812 10.0293 2.33334 12.7122 2.33334C15.3951 2.33334 17.9682 3.37812 19.8653 5.23786C21.7624 7.0976 22.8282 9.61994 22.8282 12.25V12.25Z" stroke="white" stroke-width="5.33333" stroke-linecap="round"/>
</g>
<defs>
<clipPath id="clip0">
<rect width="28.5628" height="28" fill="white" transform="translate(0.216064)"/>
</clipPath>
</defs>
</svg>
