<svg width="42" height="42" viewBox="0 0 42 42" fill="none" xmlns="http://www.w3.org/2000/svg">
<path d="M17.5 33.25H22.75V38.5H17.5V33.25ZM21 3.5C30.3625 3.885 34.44 13.335 28.875 20.4225C27.4225 22.1725 25.0775 23.3275 23.9225 24.7975C22.75 26.25 22.75 28 22.75 29.75H17.5C17.5 26.8275 17.5 24.36 18.6725 22.61C19.8275 20.86 22.1725 19.8275 23.625 18.6725C27.86 14.7525 26.81 9.205 21 8.75C19.6076 8.75 18.2723 9.30312 17.2877 10.2877C16.3031 11.2723 15.75 12.6076 15.75 14H10.5C10.5 11.2152 11.6062 8.54451 13.5754 6.57538C15.5445 4.60625 18.2152 3.5 21 3.5V3.5Z" fill="#8C86FE"/>
</svg>
